<svg width="51" height="56" viewBox="0 0 51 56" fill="none" xmlns="http://www.w3.org/2000/svg">
<path d="M48.2628 20.1261H45.017V19.7571C45.017 18.8387 44.2788 18.0916 43.3715 18.0916H36.9699C36.5287 18.0916 36.171 18.4535 36.171 18.9002C36.171 19.347 36.5287 19.7089 36.9699 19.7089H43.3715C43.3978 19.7089 43.4192 19.7305 43.4192 19.7571V29.6175C43.4192 30.0642 43.7769 30.4262 44.2181 30.4262C44.6593 30.4262 45.017 30.0642 45.017 29.6175V21.7435H48.2628C48.3708 21.7435 48.4587 21.8325 48.4587 21.9418V50.1553C48.4587 52.0059 46.9714 53.5115 45.1432 53.5115H5.63476C3.80654 53.5115 2.31919 52.0059 2.31919 50.1553V21.9418C2.31919 21.8325 2.40707 21.7435 2.51508 21.7435H5.8674V49.4022C5.8674 50.5426 6.78391 51.4705 7.91058 51.4705H42.9737C44.1004 51.4705 45.0169 50.5427 45.0169 49.4022V33.0667C45.0169 32.62 44.6592 32.258 44.218 32.258C43.7768 32.258 43.4191 32.62 43.4191 33.0667V44.7045H30.4934C28.8194 44.7045 27.3085 45.4211 26.2411 46.5658V36.1051C26.2411 35.6583 25.8834 35.2964 25.4422 35.2964C25.001 35.2964 24.6433 35.6583 24.6433 36.1051V46.5659C23.576 45.4212 22.065 44.7046 20.391 44.7046H16.7608C16.3196 44.7046 15.9619 45.0666 15.9619 45.5133C15.9619 45.96 16.3196 46.322 16.7608 46.322H20.391C22.4749 46.322 24.2122 47.8476 24.5733 49.8531H7.91058C7.66494 49.8531 7.46521 49.6509 7.46521 49.4022V46.322H13.3532C13.7944 46.322 14.1521 45.96 14.1521 45.5133C14.1521 45.0666 13.7944 44.7046 13.3532 44.7046H7.46521V19.7571C7.46521 19.7305 7.48662 19.7089 7.51293 19.7089H13.9145C14.3557 19.7089 14.7134 19.347 14.7134 18.9002C14.7134 18.4535 14.3557 18.0916 13.9145 18.0916H7.51293C6.60559 18.0916 5.8674 18.8388 5.8674 19.7571V20.1261H2.51508C1.52603 20.1261 0.721375 20.9406 0.721375 21.9418V50.1553C0.721375 52.8977 2.92551 55.1289 5.63476 55.1289H45.1429C47.8522 55.1289 50.0563 52.8977 50.0563 50.1553V21.9418C50.0564 20.9406 49.2519 20.1261 48.2628 20.1261V20.1261ZM30.4934 46.3219H43.4191V49.4022C43.4191 49.6509 43.2194 49.8531 42.9737 49.8531H26.3112C26.6722 47.8475 28.4096 46.3219 30.4934 46.3219V46.3219Z" fill="#6B61A9"/>
<path d="M14.7899 11.3466C15.2285 11.3878 15.6189 11.0621 15.6603 10.6174C15.8888 8.16501 17.0075 5.89441 18.8107 4.22397C20.625 2.54318 22.9799 1.61739 25.4416 1.61739C30.8596 1.61739 35.2674 6.07922 35.2674 11.5635C35.2674 13.6271 34.6486 15.6062 33.4781 17.287C33.4715 17.2965 33.4651 17.3062 33.4588 17.3159L28.3464 25.3724C28.2637 25.5029 28.2197 25.6545 28.2197 25.8095V26.8572C28.2197 27.0698 28.0488 27.2427 27.8387 27.2427H27.7866L28.2955 18.5008H29.2056C30.5079 18.5008 31.5674 17.4283 31.5674 16.1102V16.012C31.5674 14.6939 30.5079 13.6214 29.2056 13.6214C27.9571 13.6214 26.9215 14.6098 26.848 15.8714L26.7891 16.8834H23.9875L23.9286 15.8714C23.8552 14.6098 22.8195 13.6214 21.571 13.6214C20.2686 13.6214 19.2092 14.6939 19.2092 16.012V16.1102C19.2092 17.4283 20.2686 18.5008 21.571 18.5008H22.4811L22.9897 27.2371C22.8057 27.21 22.6635 27.0508 22.6635 26.8572V25.8095C22.6635 25.6545 22.6195 25.5029 22.5369 25.3724L17.4244 17.3159C17.4182 17.3062 17.4118 17.2965 17.4052 17.287C16.6701 16.2314 16.1524 15.0583 15.8669 13.8003C15.7679 13.365 15.3386 13.0934 14.9092 13.1934C14.4792 13.2935 14.2108 13.7274 14.3096 14.1627C14.6407 15.6204 15.2395 16.9801 16.0893 18.2042L21.0659 26.0466V26.8569C21.0659 27.6735 21.5518 28.3764 22.2458 28.6879V30.0555C22.2458 31.4945 23.4023 32.6652 24.8239 32.6652H26.06C27.4815 32.6652 28.6381 31.4945 28.6381 30.0555V28.6879C29.332 28.3764 29.8179 27.6736 29.8179 26.8569V26.0466L34.7945 18.2042C36.1494 16.2525 36.8655 13.9564 36.8655 11.5634C36.8651 5.18729 31.7405 0 25.4416 0C22.5796 0 19.8416 1.07643 17.7319 3.03088C15.6359 4.97282 14.3353 7.61305 14.0696 10.4656C14.0281 10.9104 14.3506 11.3048 14.7899 11.3466V11.3466ZM28.443 15.9665C28.4668 15.5584 28.8018 15.2387 29.2056 15.2387C29.6269 15.2387 29.9696 15.5856 29.9696 16.0119V16.11C29.9696 16.5364 29.6269 16.8833 29.2056 16.8833H28.3897L28.443 15.9665ZM21.571 16.8833C21.1497 16.8833 20.807 16.5364 20.807 16.11V16.0119C20.807 15.5856 21.1497 15.2387 21.571 15.2387C21.9749 15.2387 22.3098 15.5584 22.3335 15.9665L22.3869 16.8833H21.571ZM26.6949 18.5007L26.1861 27.2426H24.5906L24.0818 18.5007H26.6949ZM27.0398 30.0556C27.0398 30.6027 26.6001 31.0479 26.0595 31.0479H24.8235C24.283 31.0479 23.8431 30.6027 23.8431 30.0556V28.86H27.0397V30.0556H27.0398Z" fill="#6B61A9"/>
<path d="M39.4365 6.14081C39.6237 6.14081 39.8116 6.0746 39.9633 5.93982L41.7064 4.39058C42.038 4.096 42.0707 3.5849 41.7797 3.24935C41.4886 2.9138 40.9838 2.88059 40.6522 3.17517L38.9091 4.72441C38.5775 5.01899 38.5448 5.53008 38.8359 5.86564C38.9938 6.04775 39.2146 6.14081 39.4365 6.14081Z" fill="#6B61A9"/>
<path d="M38.9094 11.0181L40.6525 12.5674C40.8041 12.7023 40.992 12.7684 41.1793 12.7684C41.4012 12.7684 41.622 12.6754 41.78 12.4932C42.0711 12.1577 42.0383 11.6467 41.7068 11.352L39.9637 9.80267C39.6321 9.50787 39.1274 9.54119 38.8363 9.87685C38.5451 10.2124 38.5778 10.7233 38.9094 11.0181Z" fill="#6B61A9"/>
<path d="M9.17841 4.39058L10.9215 5.93982C11.0732 6.07471 11.2611 6.14081 11.4483 6.14081C11.6701 6.14081 11.891 6.04776 12.0489 5.86564C12.3401 5.53008 12.3072 5.01899 11.9757 4.72441L10.2325 3.17517C9.90105 2.88037 9.39614 2.91369 9.10512 3.24935C8.814 3.58491 8.84681 4.09589 9.17841 4.39058V4.39058Z" fill="#6B61A9"/>
<path d="M9.70515 12.7684C9.89231 12.7684 10.0802 12.7022 10.232 12.5674L11.9751 11.0181C12.3066 10.7234 12.3394 10.2124 12.0483 9.87685C11.7573 9.5413 11.2525 9.50809 10.9209 9.80267L9.17777 11.352C8.84627 11.6467 8.81346 12.1577 9.10459 12.4932C9.26245 12.6754 9.48316 12.7684 9.70515 12.7684V12.7684Z" fill="#6B61A9"/>
<path d="M18.3741 28.0513C18.3741 27.6046 18.0164 27.2426 17.5752 27.2426H9.70552C9.26431 27.2426 8.90662 27.6046 8.90662 28.0513C8.90662 28.498 9.26431 28.86 9.70552 28.86H17.5752C18.0164 28.86 18.3741 28.498 18.3741 28.0513Z" fill="#6B61A9"/>
<path d="M20.0085 31.3563H11.1482C10.7069 31.3563 10.3492 31.7183 10.3492 32.165C10.3492 32.6117 10.7069 32.9737 11.1482 32.9737H20.0085C20.4497 32.9737 20.8074 32.6117 20.8074 32.165C20.8074 31.7183 20.4497 31.3563 20.0085 31.3563Z" fill="#6B61A9"/>
<path d="M20.0085 35.2963H11.1482C10.7069 35.2963 10.3492 35.6583 10.3492 36.105C10.3492 36.5517 10.7069 36.9137 11.1482 36.9137H20.0085C20.4497 36.9137 20.8074 36.5517 20.8074 36.105C20.8074 35.6583 20.4497 35.2963 20.0085 35.2963Z" fill="#6B61A9"/>
<path d="M20.0085 39.2364H11.1482C10.7069 39.2364 10.3492 39.5984 10.3492 40.0451C10.3492 40.4918 10.7069 40.8538 11.1482 40.8538H20.0085C20.4497 40.8538 20.8074 40.4918 20.8074 40.0451C20.8074 39.5984 20.4497 39.2364 20.0085 39.2364Z" fill="#6B61A9"/>
<path d="M41.9783 28.0513C41.9783 27.6046 41.6206 27.2426 41.1794 27.2426H33.3097C32.8685 27.2426 32.5108 27.6046 32.5108 28.0513C32.5108 28.498 32.8685 28.86 33.3097 28.86H41.1794C41.6206 28.86 41.9783 28.498 41.9783 28.0513Z" fill="#6B61A9"/>
<path d="M39.7357 31.3563H30.8754C30.4342 31.3563 30.0765 31.7183 30.0765 32.165C30.0765 32.6117 30.4342 32.9737 30.8754 32.9737H39.7357C40.1769 32.9737 40.5346 32.6117 40.5346 32.165C40.5346 31.7183 40.1769 31.3563 39.7357 31.3563Z" fill="#6B61A9"/>
<path d="M39.7357 35.2963H30.8754C30.4342 35.2963 30.0765 35.6583 30.0765 36.105C30.0765 36.5517 30.4342 36.9137 30.8754 36.9137H39.7357C40.1769 36.9137 40.5346 36.5517 40.5346 36.105C40.5346 35.6583 40.1769 35.2963 39.7357 35.2963Z" fill="#6B61A9"/>
<path d="M39.7357 39.2364H30.8754C30.4342 39.2364 30.0765 39.5984 30.0765 40.0451C30.0765 40.4918 30.4342 40.8538 30.8754 40.8538H39.7357C40.1769 40.8538 40.5346 40.4918 40.5346 40.0451C40.5346 39.5984 40.1769 39.2364 39.7357 39.2364Z" fill="#6B61A9"/>
</svg>
