<svg width="58" height="56" viewBox="0 0 58 56" fill="none" xmlns="http://www.w3.org/2000/svg">
<g clip-path="url(#clip0_4_1437)" filter="url(#filter0_d_4_1437)">
<path d="M52.8555 40.4494H52.0523V14.5967C52.0523 11.9541 49.9023 9.80402 47.2595 9.80402H44.6576C44.2524 9.80402 43.9241 10.1323 43.9241 10.5375C43.9241 10.9427 44.2524 11.271 44.6576 11.271H47.2595C49.0934 11.271 50.5853 12.763 50.5853 14.5967V40.4495H34.1888C33.6882 40.4495 33.2212 40.6966 32.9398 41.1103L32.7198 41.4335C32.5155 41.7339 32.1766 41.9131 31.8132 41.9131H26.0888C25.7255 41.9131 25.3867 41.7339 25.1823 41.4335L24.9624 41.1104C24.6809 40.6967 24.214 40.4495 23.7134 40.4495H15.8982C15.493 40.4495 15.1647 40.7779 15.1647 41.183C15.1647 41.5882 15.493 41.9165 15.8982 41.9165H23.7134C23.7279 41.9165 23.7414 41.9236 23.7496 41.9356L23.9695 42.2588C24.4474 42.9609 25.2396 43.3801 26.0888 43.3801H31.8132C32.6626 43.3801 33.4549 42.961 33.9327 42.2587L34.1526 41.9355C34.1607 41.9236 34.1742 41.9165 34.1887 41.9165H52.5329V42.7102C52.5329 44.6623 50.9447 46.2505 48.9926 46.2505H9.00728C7.05518 46.2505 5.467 44.6623 5.467 42.7102V41.9165H12.7722C13.1774 41.9165 13.5057 41.5882 13.5057 41.183C13.5057 40.7779 13.1774 40.4495 12.7722 40.4495H7.4147V14.5967C7.4147 12.763 8.90664 11.271 10.7405 11.271H12.9035C13.3087 11.271 13.637 10.9427 13.637 10.5375C13.637 10.1323 13.3087 9.80402 12.9035 9.80402H10.7405C8.09783 9.80402 5.94769 11.954 5.94769 14.5967V40.4495H5.14446C4.51345 40.4494 4 40.9629 4 41.594V42.7102C4 45.4712 6.24628 47.7175 9.00728 47.7175H48.9927C51.7537 47.7175 54 45.4712 54 42.7102V41.594C54 40.9629 53.4865 40.4494 52.8555 40.4494V40.4494Z" fill="#6B61A9"/>
<path d="M10.7401 14.4005H15.4643C15.8695 14.4005 16.1978 14.0722 16.1978 13.667C16.1978 13.2618 15.8695 12.9335 15.4643 12.9335H10.7401C9.82299 12.9335 9.07697 13.6797 9.07697 14.5967V38.0534C9.07697 38.4586 9.40528 38.7869 9.81047 38.7869H48.1889C48.594 38.7869 48.9224 38.4586 48.9224 38.0534V31.8461C48.9224 31.441 48.594 31.1126 48.1889 31.1126C47.7837 31.1126 47.4554 31.441 47.4554 31.8461V37.3199H10.544V14.5967C10.544 14.4885 10.6319 14.4005 10.7401 14.4005V14.4005Z" fill="#6B61A9"/>
<path d="M48.9226 14.5967C48.9226 13.6797 48.1765 12.9335 47.2594 12.9335H44.8836C44.4784 12.9335 44.1501 13.2618 44.1501 13.667C44.1501 14.0722 44.4784 14.4005 44.8836 14.4005H47.2594C47.3676 14.4005 47.4556 14.4885 47.4556 14.5967V28.7202C47.4556 29.1253 47.7839 29.4537 48.1891 29.4537C48.5943 29.4537 48.9226 29.1253 48.9226 28.7202V14.5967Z" fill="#6B61A9"/>
<path d="M16.2649 11.8646L17.9957 12.7939V19.6252C17.9957 22.1257 20.0301 24.1599 22.5305 24.1599H35.4696C37.9701 24.1599 40.0044 22.1257 40.0044 19.6252V12.7415L41.0674 12.1708V25.2301C39.9532 25.5496 39.1351 26.5769 39.1351 27.7925C39.1351 29.2624 40.331 30.4583 41.8009 30.4583C43.2708 30.4583 44.4667 29.2624 44.4667 27.7925C44.4667 26.5769 43.6486 25.5496 42.5344 25.2301V10.365C42.5344 10.365 42.5344 10.3649 42.5344 10.3648C42.5344 9.73681 42.1906 9.16233 41.6374 8.86521L29.7566 2.4858C29.2524 2.21479 28.6502 2.21479 28.1459 2.4857L16.2649 8.86521C15.7116 9.16233 15.3678 9.737 15.3679 10.3651C15.3679 10.9931 15.7117 11.5677 16.2649 11.8646V11.8646ZM42.9998 27.7925C42.9998 28.4535 42.462 28.9913 41.801 28.9913C41.14 28.9913 40.6022 28.4535 40.6022 27.7925C40.6022 27.1315 41.14 26.5937 41.801 26.5937C42.462 26.5937 42.9998 27.1316 42.9998 27.7925ZM16.9589 10.1576L28.8401 3.77813C28.9097 3.74087 28.9927 3.74077 29.0624 3.77823L40.9434 10.1576C41.0514 10.2156 41.0674 10.3125 41.0674 10.365C41.0674 10.4175 41.0514 10.5142 40.9434 10.5722L29.0623 16.9517C28.9928 16.9892 28.9095 16.9892 28.8399 16.9517L25.4737 15.1443C25.1168 14.9525 24.6722 15.0866 24.4806 15.4436C24.2889 15.8005 24.4229 16.2451 24.7798 16.4367L28.1459 18.2442C28.398 18.3796 28.6746 18.4473 28.9512 18.4473C29.2278 18.4473 29.5044 18.3796 29.7564 18.2442L38.5374 13.5292V19.6252C38.5374 21.3168 37.1612 22.6929 35.4696 22.6929H22.5306C20.839 22.6929 19.4628 21.3168 19.4628 19.6252V13.5816L21.9381 14.9107C22.2951 15.1026 22.7399 14.9684 22.9313 14.6115C23.123 14.2546 22.989 13.8099 22.632 13.6183L16.9589 10.5721C16.851 10.5142 16.8349 10.4175 16.8349 10.365C16.8349 10.3125 16.851 10.2156 16.9589 10.1576V10.1576Z" fill="#6B61A9"/>
</g>
<defs>
<filter id="filter0_d_4_1437" x="0" y="0" width="58" height="58" filterUnits="userSpaceOnUse" color-interpolation-filters="sRGB">
<feFlood flood-opacity="0" result="BackgroundImageFix"/>
<feColorMatrix in="SourceAlpha" type="matrix" values="0 0 0 0 0 0 0 0 0 0 0 0 0 0 0 0 0 0 127 0" result="hardAlpha"/>
<feOffset dy="4"/>
<feGaussianBlur stdDeviation="2"/>
<feComposite in2="hardAlpha" operator="out"/>
<feColorMatrix type="matrix" values="0 0 0 0 0 0 0 0 0 0 0 0 0 0 0 0 0 0 0.25 0"/>
<feBlend mode="normal" in2="BackgroundImageFix" result="effect1_dropShadow_4_1437"/>
<feBlend mode="normal" in="SourceGraphic" in2="effect1_dropShadow_4_1437" result="shape"/>
</filter>
<clipPath id="clip0_4_1437">
<rect width="50" height="50" fill="white" transform="translate(4)"/>
</clipPath>
</defs>
</svg>
