<svg width="50" height="50" viewBox="0 0 50 50" fill="none" xmlns="http://www.w3.org/2000/svg">
<g clip-path="url(#clip0_4_1496)">
<path d="M11.3207 27.174C10.9303 27.0719 10.5309 27.3056 10.4287 27.696L9.38536 31.6832L0.24128 43.0967C-0.011087 43.4117 0.0397762 43.8717 0.354699 44.124C0.489555 44.232 0.650914 44.2844 0.811202 44.2844C1.02537 44.2844 1.23769 44.1907 1.382 44.0105L10.6233 32.4756C10.6874 32.3956 10.734 32.3029 10.7599 32.2036L11.8427 28.0659C11.9449 27.6755 11.7112 27.2762 11.3207 27.174V27.174Z" fill="#6B61A9"/>
<path d="M12.75 25.1765C13.3438 23.9165 14.246 22.8124 15.3589 21.9834L19.7528 18.711C20.3395 18.274 21.0655 18.0541 21.7958 18.0943L26.0039 18.3214C26.4547 18.3456 26.8641 18.5702 27.1267 18.9373C27.3895 19.3046 27.47 19.7645 27.3476 20.1991C27.1828 20.7844 26.6854 21.204 26.0808 21.2685L22.377 21.6631C22.0772 21.695 21.8277 21.9077 21.749 22.1987L20.3341 27.4226C20.2213 27.839 20.1859 28.2678 20.2285 28.6964L20.4468 30.8902C20.4843 31.2673 20.8021 31.5488 21.1731 31.5488C21.1973 31.5488 21.2217 31.5476 21.2463 31.5451C21.6479 31.5052 21.9411 31.1472 21.9012 30.7456L21.6829 28.5517C21.6579 28.3003 21.6787 28.0489 21.7449 27.8046L23.029 23.0635L26.2357 22.7219C27.4379 22.5938 28.4265 21.7591 28.7545 20.5956C28.9981 19.7314 28.838 18.817 28.3154 18.0867C27.7929 17.3566 26.979 16.9102 26.0826 16.8619L21.8745 16.6349C20.8745 16.5816 19.8815 16.8576 19.0542 17.4156L19.0654 17.3878C20.1002 14.8326 21.8853 12.7139 24.2278 11.2607L27.3923 9.29764C27.4634 9.2535 27.5265 9.19748 27.5787 9.1319L33.9053 1.18603C34.1567 0.87033 34.1046 0.410515 33.7888 0.159122C33.4731 -0.0922705 33.0133 -0.0400432 32.7619 0.275562L26.5142 8.12233L23.4574 10.0187C20.8498 11.6364 18.8626 13.9949 17.7108 16.8391L16.8003 19.0877L14.4861 20.8112C13.1812 21.7831 12.1238 23.0771 11.4279 24.5534C11.2559 24.9185 11.4124 25.354 11.7775 25.5259C12.1426 25.6982 12.578 25.5416 12.75 25.1765V25.1765Z" fill="#6B61A9"/>
<path d="M49.6453 2.37361C49.3302 2.12115 48.8704 2.17211 48.618 2.48703L44.5571 7.55582C44.3047 7.87074 44.3556 8.33075 44.6705 8.58312C44.8054 8.69108 44.9667 8.7435 45.127 8.7435C45.3412 8.7435 45.5535 8.64976 45.6978 8.4696L49.7588 3.40082C50.0111 3.08599 49.9604 2.62598 49.6453 2.37361V2.37361Z" fill="#6B61A9"/>
<path d="M43.6342 9.87624C43.3191 9.62377 42.8592 9.67474 42.6069 9.98966L39.5069 13.859C39.3003 14.1171 39.1852 14.4416 39.1832 14.7722L39.1621 18.107L38.4175 18.0735C36.8863 18.004 35.5762 19.1977 35.5073 20.733L35.4981 20.9352C35.468 21.6036 35.6742 22.2461 36.0806 22.7684C35.9404 22.856 35.8069 22.9564 35.6823 23.0703C35.1447 23.5616 34.8306 24.2328 34.798 24.9601L34.7891 25.1563C34.7591 25.8229 34.9729 26.445 35.3508 26.9369C34.633 27.3996 34.1418 28.191 34.1004 29.1071L34.0917 29.3028C34.061 29.984 34.2805 30.6382 34.7119 31.1601C33.9941 31.6238 33.4925 32.4066 33.4308 33.3125C33.3941 33.8521 33.5115 34.3768 33.765 34.8387C33.7467 34.8893 33.7334 34.9425 33.7267 34.9983L33.2945 38.584C33.2909 38.6129 33.28 38.6405 33.263 38.664L31.2824 41.4103C31.0287 41.7618 30.5439 41.8542 30.179 41.6205C29.9948 41.5027 29.8678 41.3202 29.8211 41.1067C29.7845 40.9387 29.8017 40.7676 29.8681 40.6127L30.9851 38.9081C31.0685 38.7808 31.2013 38.4867 31.2044 38.4782C31.2761 38.2929 31.3246 38.0987 31.3461 37.9014L32.04 31.5332C32.0836 31.132 31.7939 30.7714 31.3926 30.7275C30.9908 30.6842 30.6306 30.9736 30.5869 31.3749L29.893 37.7431C29.8871 37.7976 29.8745 37.851 29.8579 37.9032L26.9821 42.3502C26.7222 42.7467 26.2183 42.8963 25.7841 42.7065C25.5401 42.5997 25.3552 42.4032 25.2634 42.153C25.1716 41.9029 25.1855 41.6334 25.3026 41.394L26.492 38.9632C26.5278 38.8901 26.6634 38.399 26.6838 38.2223L27.4798 31.3003C27.5259 30.8994 27.2383 30.5369 26.8372 30.4907C26.4366 30.4452 26.074 30.7323 26.0277 31.1334L25.2316 38.0554C25.2167 38.1858 25.1678 38.3106 25.0902 38.4164L22.3008 42.2246C22.0209 42.6069 21.513 42.7253 21.0925 42.5059C20.6458 42.2724 20.4582 41.7299 20.6656 41.2704L22.1866 37.9017C22.4148 37.3965 22.5064 36.8378 22.4515 36.286L22.2087 33.8453C22.1688 33.4436 21.8108 33.1507 21.4092 33.1904C21.0075 33.2303 20.7144 33.5883 20.7543 33.9899L20.9971 36.4306C21.0266 36.7276 20.9773 37.0282 20.8545 37.3002L19.3334 40.6689C19.1573 41.0593 19.0939 41.4732 19.1297 41.8735L18.0732 42.2406C17.8302 42.3251 17.617 42.4758 17.4567 42.6761L12.5405 48.8124C12.2881 49.1273 12.339 49.5873 12.6539 49.8397C12.7887 49.9477 12.9501 50.0002 13.1104 50.0002C13.3246 50.0002 13.5369 49.9065 13.6812 49.7263L18.5798 43.612L19.6939 43.2249C19.8897 43.4558 20.1322 43.6532 20.4158 43.8014C20.7752 43.989 21.1597 44.0793 21.5391 44.0793C22.2844 44.0793 23.0092 43.7309 23.4799 43.0883L23.861 42.5678C23.8707 42.5975 23.8803 42.6271 23.8912 42.6565C24.1214 43.2841 24.5856 43.7775 25.1981 44.0455C25.5156 44.1844 25.8475 44.2509 26.175 44.2508C26.9723 44.2508 27.7421 43.8565 28.2044 43.1512L28.7787 42.2748C28.9433 42.5003 29.1486 42.6967 29.3909 42.8518C29.7703 43.0945 30.1959 43.2111 30.6172 43.2111C31.3266 43.2111 32.024 42.8805 32.4677 42.2654L32.798 41.8073C32.9472 42.0472 33.1417 42.2645 33.3816 42.444C33.8027 42.7589 34.2929 42.9117 34.7787 42.9117C35.4604 42.9117 36.1335 42.6108 36.5949 42.0351L37.7998 40.531C38.1833 40.0524 38.423 39.4774 38.4931 38.868L38.8053 36.1521C39.7592 35.7582 40.4647 34.8476 40.5387 33.7613C40.5872 33.0501 40.3689 32.3642 39.9225 31.8149C40.6593 31.3557 41.1661 30.5541 41.2079 29.6233L41.2168 29.4272C41.2462 28.7722 41.0408 28.1602 40.6752 27.6724C41.4132 27.2134 41.9213 26.411 41.9633 25.4789L41.9721 25.2831C42.0017 24.624 41.7966 23.9908 41.3926 23.4777C42.1271 23.0047 42.6301 22.1952 42.6722 21.2578L42.6812 21.0561C42.7147 20.3123 42.4565 19.5999 41.9541 19.0501C41.5908 18.6526 41.131 18.3753 40.623 18.2392L40.6474 14.7729L43.7472 10.9037C44 10.5886 43.9491 10.1286 43.6342 9.87624V9.87624ZM40.1824 24.3073C40.4103 24.5567 40.5274 24.8798 40.5123 25.2175L40.5035 25.4133C40.4722 26.1099 39.884 26.6511 39.1833 26.6199L37.2833 26.5211C36.6723 26.4085 36.2206 25.8597 36.2493 25.2221L36.2581 25.026C36.2733 24.6885 36.419 24.3771 36.6683 24.1493C36.9034 23.9346 37.2039 23.8181 37.5202 23.8181C37.5395 23.8181 39.3058 23.8971 39.3058 23.8971C39.6432 23.9122 39.9545 24.0579 40.1824 24.3073V24.3073ZM39.7482 29.5573C39.7169 30.2538 39.1262 30.7948 38.4279 30.764L36.7584 30.6888C36.4209 30.6736 36.1095 30.528 35.8816 30.2786C35.6538 30.0293 35.5367 29.7061 35.5518 29.3683L35.5606 29.1727C35.5919 28.4762 36.1832 27.9353 36.8809 27.966L38.7229 28.0622C39.3339 28.1747 39.7857 28.7236 39.7571 29.3612L39.7482 29.5573ZM36.6596 39.6169L35.4545 41.1211C35.1602 41.4884 34.6343 41.5554 34.2575 41.2734C33.8847 40.9946 33.798 40.4746 34.0601 40.0899L34.46 39.5029C34.4614 39.5008 34.4625 39.4986 34.4639 39.4966C34.6142 39.2804 34.7116 39.0292 34.7454 38.7634L35.0726 36.0486C35.3887 36.1902 35.7318 36.273 36.089 36.2891L37.3125 36.3441L37.0415 38.701C37.0029 39.0365 36.8708 39.3533 36.6596 39.6169V39.6169ZM39.0809 33.6617C39.0323 34.3757 38.4143 34.9288 37.6961 34.8982L36.1545 34.8288C35.7943 34.8126 35.4637 34.6556 35.2235 34.3867C34.9833 34.1177 34.8646 33.7715 34.889 33.4118C34.9376 32.6978 35.5576 32.1448 36.2737 32.1753L37.8155 32.2447C38.1756 32.2609 38.5062 32.4179 38.7464 32.6868C38.9866 32.9558 39.1054 33.302 39.0809 33.6617ZM41.2215 20.9905L41.2124 21.1922C41.1796 21.9227 40.5607 22.49 39.8279 22.4575L38.2235 22.3853C37.8696 22.3694 37.5432 22.2166 37.304 21.9551C37.0649 21.6936 36.9422 21.3548 36.958 21.0011L36.9672 20.7989C37.0001 20.0684 37.6194 19.5039 38.3517 19.5336L39.9561 19.6058C40.31 19.6217 40.6365 19.7745 40.8756 20.036C41.1146 20.2974 41.2374 20.6364 41.2215 20.9905V20.9905Z" fill="#6B61A9"/>
</g>
<defs>
<clipPath id="clip0_4_1496">
<rect width="50" height="50" fill="white"/>
</clipPath>
</defs>
</svg>
