<svg width="50" height="50" viewBox="0 0 50 50" fill="none" xmlns="http://www.w3.org/2000/svg">
<g clip-path="url(#clip0_4_1502)">
<path d="M49.2719 16.2019H45.756C45.4442 16.2019 45.1904 15.9482 45.1904 15.6363V2.9364C45.1904 2.62457 45.4442 2.37086 45.756 2.37086H49.2719C49.6739 2.37086 49.9996 2.04505 49.9996 1.64319C49.9996 1.24132 49.6739 0.915513 49.2719 0.915513H45.756C44.8984 0.915513 44.1658 1.45341 43.8728 2.20873H41.6087L40.795 1.61447C39.4435 0.627258 37.8446 0.105469 36.1709 0.105469H23.3147C21.8244 0.105469 20.6119 1.31796 20.6119 2.80833C20.6119 3.419 20.8158 3.9828 21.1586 4.43589C20.3672 4.90791 19.8357 5.77219 19.8357 6.75872C19.8357 7.36938 20.0396 7.93328 20.3825 8.38638C19.591 8.85839 19.0596 9.72267 19.0596 10.7092C19.0596 11.1625 19.1722 11.5897 19.3702 11.9653H12.3729C10.8827 11.9653 9.67017 13.1778 9.67017 14.6681C9.67017 16.1585 10.8827 17.371 12.3729 17.371H22.2851C22.6871 17.371 23.0128 17.0452 23.0128 16.6433C23.0128 16.2415 22.6871 15.9156 22.2851 15.9156H12.3729C11.685 15.9156 11.1255 15.356 11.1255 14.6681C11.1255 13.9802 11.6851 13.4206 12.3729 13.4206H23.6803C24.0822 13.4206 24.4079 13.0948 24.4079 12.6929C24.4079 12.6915 24.4078 12.6901 24.4078 12.6887C24.4078 12.6872 24.4079 12.6859 24.4079 12.6844C24.4079 12.2825 24.0822 11.9567 23.6803 11.9567H21.7622C21.0743 11.9567 20.5148 11.3971 20.5148 10.7092C20.5148 10.0213 21.0744 9.46168 21.7622 9.46168H23.7904C24.1924 9.46168 24.5181 9.13588 24.5181 8.73401C24.5181 8.33214 24.1924 8.00634 23.7904 8.00634H22.5384C21.8505 8.00634 21.291 7.44671 21.291 6.75882C21.291 6.07093 21.8506 5.5113 22.5384 5.5113H23.8246C24.2266 5.5113 24.5523 5.18549 24.5523 4.78362C24.5523 4.38176 24.2266 4.05595 23.8246 4.05595H23.3146C22.6267 4.05595 22.0672 3.49632 22.0672 2.80843C22.0672 2.12054 22.6268 1.56091 23.3146 1.56091H36.1708C37.5338 1.56091 38.8359 1.98587 39.9365 2.7898L40.9418 3.52407C41.0664 3.61508 41.2168 3.66408 41.371 3.66408H43.7349V14.9086H40.5417C39.9552 14.9086 39.3776 15.1073 38.915 15.468L36.1656 17.6121C35.5182 18.117 35.147 18.8773 35.147 19.698V22.926C35.147 23.859 34.388 24.618 33.4551 24.618C32.5223 24.618 31.7633 23.859 31.7633 22.926V18.0617C31.7633 16.8784 30.8005 15.9156 29.6172 15.9156H25.3929C24.991 15.9156 24.6653 16.2415 24.6653 16.6433C24.6653 17.0452 24.991 17.371 25.3929 17.371H29.6172C29.9981 17.371 30.3079 17.6808 30.3079 18.0617V22.926C30.3079 24.6615 31.7198 26.0734 33.4551 26.0734C35.1905 26.0734 36.6024 24.6615 36.6024 22.926V19.698C36.6024 19.3288 36.7694 18.9868 37.0606 18.7598L39.81 16.6157C40.0181 16.4534 40.2779 16.3641 40.5417 16.3641H43.8727C44.1656 17.1194 44.8983 17.6573 45.7559 17.6573H49.2718C49.6738 17.6573 49.9995 17.3315 49.9995 16.9296C49.9995 16.5278 49.6738 16.2019 49.2719 16.2019V16.2019Z" fill="#6B61A9"/>
<path d="M30.1639 43.2413C30.1639 42.6306 29.9601 42.0667 29.6172 41.6136C30.4086 41.1416 30.9401 40.2773 30.9401 39.2908C30.9401 38.8375 30.8275 38.4103 30.6295 38.0347H37.6267C39.1169 38.0347 40.3294 36.8222 40.3294 35.3319C40.3294 33.8415 39.1169 32.629 37.6267 32.629H20.3823C20.0015 32.629 19.6917 32.3192 19.6917 31.9383V27.074C19.6917 25.3385 18.2797 23.9266 16.5444 23.9266C14.809 23.9266 13.397 25.3385 13.397 27.074V30.302C13.397 30.6712 13.23 31.0132 12.9389 31.2402L10.1894 33.3843C9.98143 33.5466 9.7216 33.6359 9.4578 33.6359H6.12681C5.83389 32.8806 5.10118 32.3427 4.24359 32.3427H0.727672C0.325706 32.3427 0 32.6685 0 33.0704C0 33.4722 0.325706 33.798 0.727672 33.798H4.24359C4.55542 33.798 4.80914 34.0518 4.80914 34.3636V39.7154C4.80914 40.1172 5.13484 40.443 5.53681 40.443C5.93877 40.443 6.26448 40.1172 6.26448 39.7154V35.0913H9.4577C10.0442 35.0913 10.6218 34.8927 11.0844 34.5319L13.8338 32.3878C14.4811 31.883 14.8523 31.1227 14.8523 30.3019V27.0739C14.8523 26.1409 15.6113 25.3819 16.5443 25.3819C17.4772 25.3819 18.2362 26.1409 18.2362 27.0739V31.9382C18.2362 33.1215 19.1989 34.0843 20.3822 34.0843H37.6265C38.3144 34.0843 38.8739 34.6439 38.8739 35.3318C38.8739 36.0197 38.3143 36.5793 37.6265 36.5793H26.3193C25.9174 36.5793 25.5916 36.9051 25.5916 37.307C25.5916 37.3084 25.5918 37.3098 25.5918 37.3112C25.5918 37.3127 25.5916 37.3141 25.5916 37.3155C25.5916 37.7174 25.9174 38.0432 26.3193 38.0432H28.2374C28.9253 38.0432 29.4848 38.6028 29.4848 39.2907C29.4848 39.9786 28.9252 40.5382 28.2374 40.5382H26.2092C25.8072 40.5382 25.4815 40.864 25.4815 41.2659C25.4815 41.6678 25.8072 41.9936 26.2092 41.9936H27.4612C28.1491 41.9936 28.7086 42.5532 28.7086 43.2411C28.7086 43.929 28.149 44.4886 27.4612 44.4886H26.1749C25.7729 44.4886 25.4472 44.8144 25.4472 45.2163C25.4472 45.6182 25.7729 45.944 26.1749 45.944H26.6849C27.3728 45.944 27.9323 46.5036 27.9323 47.1915C27.9323 47.8794 27.3727 48.439 26.6849 48.439H13.8287C12.4657 48.439 11.1636 48.014 10.063 47.2101L9.05767 46.4758C8.9331 46.3848 8.78271 46.3358 8.62844 46.3358H6.26448V42.8165C6.26448 42.4146 5.93877 42.0888 5.53681 42.0888C5.13484 42.0888 4.80914 42.4146 4.80914 42.8165V47.0635C4.80914 47.3753 4.55542 47.629 4.24359 47.629H0.727672C0.325706 47.629 0 47.9549 0 48.3567C0 48.7586 0.325706 49.0844 0.727672 49.0844H4.24359C5.10118 49.0844 5.8338 48.5465 6.12681 47.7912H8.39093L9.20457 48.3854C10.5561 49.3726 12.155 49.8944 13.8287 49.8944H26.6849C28.1752 49.8944 29.3877 48.6819 29.3877 47.1916C29.3877 46.5809 29.1838 46.0171 28.841 45.564C29.6325 45.0921 30.1639 44.2277 30.1639 43.2413V43.2413Z" fill="#6B61A9"/>
<path d="M46.2964 30.2881C45.908 30.1844 45.5094 30.4153 45.4058 30.8035C44.4895 34.2379 42.6947 37.4146 40.2151 39.9902C37.7411 42.5603 34.6425 44.4732 31.2547 45.5222C30.8709 45.6411 30.656 46.0487 30.7749 46.4326C30.8715 46.7448 31.1592 46.9453 31.4698 46.9453C31.541 46.9453 31.6135 46.9347 31.6853 46.9126C35.3072 45.7911 38.6195 43.7464 41.2637 40.9996C43.9137 38.2468 45.8323 34.8508 46.8119 31.1787C46.9156 30.7904 46.6847 30.3917 46.2964 30.2881V30.2881Z" fill="#6B61A9"/>
<path d="M45.9626 19.1359C45.5736 19.2369 45.3402 19.6341 45.4411 20.023C45.8902 21.753 46.1179 23.5437 46.1179 25.3455C46.1179 26.161 46.0699 26.9889 45.975 27.8062C45.9286 28.2055 46.2149 28.5666 46.614 28.6129C46.6425 28.6162 46.6708 28.6177 46.6988 28.6177C47.0631 28.6177 47.3777 28.3446 47.4207 27.9739C47.5218 27.1011 47.5732 26.2168 47.5732 25.3455C47.5732 23.4203 47.3297 21.5065 46.8498 19.6574C46.7489 19.2685 46.3519 19.0349 45.9626 19.1359V19.1359Z" fill="#6B61A9"/>
<path d="M3.68621 30.8876C3.73908 30.8876 3.79283 30.8818 3.84659 30.8697C4.23866 30.7815 4.485 30.3921 4.3968 30.0001C4.0546 28.479 3.88113 26.913 3.88113 25.3455C3.88113 20.8108 5.29688 16.4891 7.9752 12.8478C10.6007 9.27829 14.2017 6.66265 18.389 5.28376C18.7708 5.15812 18.9782 4.74674 18.8525 4.36495C18.7267 3.98326 18.3154 3.77573 17.9337 3.90147C13.4576 5.37554 9.60858 8.17097 6.80287 11.9854C3.93934 15.8786 2.42578 20.4984 2.42578 25.3455C2.42578 27.0202 2.61119 28.6937 2.97697 30.3195C3.05313 30.6578 3.35332 30.8876 3.68621 30.8876Z" fill="#6B61A9"/>
<path d="M9.0295 17.2532C8.66392 17.086 8.23226 17.2469 8.06519 17.6123C6.95137 20.0475 6.3866 22.6493 6.3866 25.3456C6.3866 27.528 6.7614 29.6665 7.50071 31.7015C7.60802 31.9972 7.88725 32.1809 8.18472 32.1809C8.26719 32.1809 8.35112 32.1667 8.4331 32.1369C8.81091 31.9996 9.00583 31.5822 8.86854 31.2045C8.18734 29.3293 7.84194 27.3579 7.84194 25.3455C7.84194 22.8596 8.36227 20.4614 9.38858 18.2175C9.55575 17.8521 9.39508 17.4203 9.0295 17.2532V17.2532Z" fill="#6B61A9"/>
<path d="M41.1889 32.9945C41.2816 33.0338 41.3779 33.0524 41.4728 33.0524C41.756 33.0524 42.0253 32.8859 42.1429 32.6087C43.1189 30.3079 43.6137 27.8642 43.6137 25.3455C43.6137 22.8988 43.1449 20.5183 42.2202 18.2701C42.0673 17.8985 41.6419 17.7211 41.2705 17.874C40.8988 18.0268 40.7214 18.452 40.8742 18.8237C41.7263 20.8955 42.1583 23.0896 42.1583 25.3455C42.1583 27.6679 41.7024 29.9203 40.8031 32.0404C40.6462 32.4104 40.8189 32.8376 41.1889 32.9945V32.9945Z" fill="#6B61A9"/>
<path d="M16.7631 8.65069C16.4432 8.80883 16.1266 8.97659 15.8224 9.14938C15.4728 9.3478 15.3504 9.79197 15.5488 10.1414C15.6828 10.3775 15.9289 10.51 16.1823 10.51C16.304 10.51 16.4273 10.4795 16.5408 10.415C16.8211 10.2559 17.1128 10.1014 17.4079 9.95545C17.7682 9.77741 17.9159 9.341 17.7378 8.98066C17.5598 8.62042 17.1234 8.47265 16.7631 8.65069V8.65069Z" fill="#6B61A9"/>
<path d="M34.5337 39.6132C33.8113 40.097 33.0441 40.5295 32.2536 40.8988C31.8895 41.0688 31.7323 41.502 31.9024 41.8661C32.0259 42.1306 32.2883 42.2859 32.5621 42.2859C32.6652 42.2859 32.7701 42.2638 32.8697 42.2173C33.7273 41.8167 34.5595 41.3474 35.3435 40.8225C35.6773 40.5989 35.7668 40.1469 35.5433 39.813C35.3195 39.4789 34.8675 39.3896 34.5337 39.6132V39.6132Z" fill="#6B61A9"/>
<path d="M24.952 20.0258C24.55 20.0258 24.2243 20.3516 24.2243 20.7534V21.3443C22.6989 21.6395 21.4945 22.844 21.1992 24.3694H20.6083C20.2064 24.3694 19.8807 24.6952 19.8807 25.0971C19.8807 25.4989 20.2064 25.8247 20.6083 25.8247H21.1992C21.4945 27.3501 22.6989 28.5546 24.2243 28.8498V29.4407C24.2243 29.8425 24.55 30.1683 24.952 30.1683C25.3539 30.1683 25.6796 29.8425 25.6796 29.4407V28.8498C27.205 28.5546 28.4095 27.3501 28.7047 25.8247H29.2956C29.6976 25.8247 30.0233 25.4989 30.0233 25.0971C30.0233 24.6952 29.6976 24.3694 29.2956 24.3694H28.7047C28.4095 22.844 27.205 21.6395 25.6796 21.3443V20.7534C25.6796 20.3516 25.3538 20.0258 24.952 20.0258ZM27.3196 25.0971C27.3196 26.4027 26.2575 27.4648 24.952 27.4648C23.6464 27.4648 22.5843 26.4027 22.5843 25.0971C22.5843 23.7914 23.6464 22.7293 24.952 22.7293C26.2575 22.7293 27.3196 23.7914 27.3196 25.0971Z" fill="#6B61A9"/>
<path d="M24.2234 24.9833V25.1941C24.2234 25.5959 24.5491 25.9217 24.9511 25.9217C25.353 25.9217 25.6787 25.5959 25.6787 25.1941V24.9833C25.6787 24.5814 25.353 24.2556 24.9511 24.2556C24.5491 24.2556 24.2234 24.5814 24.2234 24.9833Z" fill="#6B61A9"/>
</g>
<defs>
<clipPath id="clip0_4_1502">
<rect width="50" height="50" fill="white"/>
</clipPath>
</defs>
</svg>
