<svg width="50" height="50" viewBox="0 0 50 50" fill="none" xmlns="http://www.w3.org/2000/svg">
<g clip-path="url(#clip0_4_1515)">
<path d="M44.0875 10.5429V2.80334C44.0875 1.73278 43.2166 0.861847 42.146 0.861847H40.8367C39.9527 0.861847 39.2063 1.4563 38.9725 2.26598L30.0328 5.73084C29.6513 5.87871 29.4619 6.3078 29.6097 6.68938C29.7234 6.98285 30.0037 7.16273 30.3007 7.16273C30.3897 7.16273 30.4802 7.14653 30.5682 7.11245L38.8952 3.88506V34.4202L19.628 26.9525C19.5426 26.9194 19.4519 26.9024 19.3603 26.9024H18.1844C18.1841 26.9024 18.1838 26.9024 18.1834 26.9024C18.183 26.9024 18.1828 26.9024 18.1825 26.9024H17.1524V11.4028H19.3603C19.4519 11.4028 19.5426 11.3858 19.628 11.3527L27.6213 8.25453C28.0028 8.10666 28.1923 7.67756 28.0444 7.29598C27.8965 6.9145 27.4674 6.72504 27.086 6.87291L19.2216 9.92102H15.8752V8.36635C15.8752 7.20461 14.93 6.2594 13.7682 6.2594H10.5976C9.43582 6.2594 8.4906 7.20461 8.4906 8.36635V9.95085C3.74548 10.3296 0 14.3117 0 19.1526C0 23.0438 2.42017 26.3803 5.83425 27.7363V30.8324C5.83425 31.7907 6.44777 32.6081 7.3025 32.9133V47.3283C7.3025 48.3262 8.11436 49.1381 9.11222 49.1381H12.1077C13.1055 49.1381 13.9174 48.3262 13.9174 47.3283V44.8022C14.0205 44.8084 14.1231 44.8119 14.2248 44.8119C15.1679 44.8119 16.0526 44.5429 16.8659 44.0071C17.489 43.5966 17.7346 42.7931 17.4499 42.0967L15.3982 37.0787L16.9106 35.7002C17.0646 35.5599 17.1524 35.3611 17.1524 35.1527V32.9979C18.1618 32.7945 18.9243 31.9009 18.9243 30.8325V28.3842H19.2217L38.9726 36.0392C39.2064 36.8489 39.9528 37.4434 40.8368 37.4434H42.1461C43.2167 37.4434 44.0876 36.5724 44.0876 35.5019V27.7623C47.4086 27.3925 50 24.5694 50 21.1512V17.1541C50 13.7358 47.4085 10.9128 44.0875 10.5429V10.5429ZM15.6707 26.9024H13.9174V11.4028H15.6707V26.9024ZM10.5976 7.74108H13.7683C14.1131 7.74108 14.3936 8.02161 14.3936 8.36635V9.92102H9.97238V8.36635C9.97238 8.02161 10.2528 7.74108 10.5976 7.74108ZM1.48168 19.1526C1.48168 14.8793 4.95829 11.4027 9.23154 11.4027H12.4357V26.9024H9.23154C4.95829 26.9024 1.48168 23.4259 1.48168 19.1526ZM12.6774 37.5537C12.5234 37.6941 12.4356 37.8928 12.4356 38.1012V39.4692C12.4356 39.8784 12.7673 40.2101 13.1765 40.2101C13.5856 40.2101 13.9173 39.8784 13.9173 39.4692V38.4284L14.232 38.1415L16.0784 42.6573C16.0954 42.6989 16.0832 42.7483 16.0507 42.7697C15.3951 43.2016 14.6926 43.3819 13.9173 43.3164V42.6264C13.9173 42.2172 13.5856 41.8855 13.1765 41.8855C12.7673 41.8855 12.4356 42.2172 12.4356 42.6264V47.3283C12.4356 47.5092 12.2884 47.6564 12.1076 47.6564H9.11222C8.93126 47.6564 8.78417 47.5092 8.78417 47.3283V33.0415H15.6707V34.8255L12.6774 37.5537ZM17.4425 30.8324C17.4425 31.2336 17.1162 31.5598 16.7151 31.5598H8.04334C7.6422 31.5598 7.31593 31.2336 7.31593 30.8324V28.1837C7.93419 28.3147 8.57486 28.3841 9.23154 28.3841H17.4425V30.8324ZM48.5183 21.1512C48.5183 23.7513 46.5894 25.9084 44.0876 26.269V23.1125C44.0876 22.7034 43.756 22.3717 43.3468 22.3717C42.9375 22.3717 42.6059 22.7034 42.6059 23.1125V35.5018C42.6059 35.7554 42.3997 35.9616 42.1461 35.9616H40.8368C40.5832 35.9616 40.377 35.7554 40.377 35.5018V2.80334C40.377 2.54977 40.5832 2.34352 40.8368 2.34352H42.1461C42.3997 2.34352 42.6059 2.54977 42.6059 2.80334V19.9552C42.6059 20.3644 42.9375 20.6961 43.3468 20.6961C43.756 20.6961 44.0876 20.3644 44.0876 19.9552V12.0363C46.5895 12.3968 48.5183 14.5539 48.5183 17.1541V21.1512Z" fill="#6B61A9"/>
</g>
<defs>
<clipPath id="clip0_4_1515">
<rect width="50" height="50" fill="white"/>
</clipPath>
</defs>
</svg>
