<svg width="50" height="50" viewBox="0 0 50 50" fill="none" xmlns="http://www.w3.org/2000/svg">
<g clip-path="url(#clip0_4_1567)">
<path d="M32.8292 44.8145C32.4382 44.7168 32.0412 44.9552 31.9437 45.3468C31.4757 47.2262 29.7945 48.5389 27.8553 48.5389H6.76158C4.43807 48.5389 2.54775 46.6486 2.54775 44.3251V5.67504C2.54785 3.35152 4.43816 1.46121 6.76158 1.46121H9.6687L9.94438 2.75194C10.2093 3.99212 11.3221 4.89232 12.5901 4.89232H16.9173C17.3209 4.89232 17.6479 4.5653 17.6479 4.16171C17.6479 3.75813 17.3209 3.43111 16.9173 3.43111H12.5901C12.0069 3.43111 11.4952 3.0171 11.3734 2.44684L11.163 1.46121H23.4539L23.2434 2.44674C23.1217 3.0171 22.61 3.43101 22.0268 3.43101H20.0309C19.6273 3.43101 19.3003 3.75803 19.3003 4.16162C19.3003 4.5652 19.6273 4.89222 20.0309 4.89222H22.0267C23.295 4.89222 24.4075 3.99212 24.6724 2.75184L24.9481 1.46111H27.8553C30.1788 1.46111 32.069 3.35143 32.069 5.67494V18.5754C32.069 18.9789 32.396 19.306 32.7996 19.306C33.2032 19.306 33.5302 18.9789 33.5302 18.5754V5.67504C33.5302 2.54581 30.9845 0 27.8554 0H6.76158C3.63236 0 1.08664 2.54581 1.08664 5.67504V44.3251C1.08664 47.4543 3.63245 50.0001 6.76168 50.0001H27.8554C30.467 50.0001 32.7312 48.2318 33.3616 45.7C33.4591 45.3084 33.2208 44.9119 32.8292 44.8145Z" fill="#6B61A9"/>
<path d="M27.7978 14.2953C28.2014 14.2953 28.5284 13.9683 28.5284 13.5647V13.4717C28.5284 11.7809 27.1528 10.4054 25.462 10.4054H9.44213C7.75141 10.4054 6.37573 11.7808 6.37573 13.4717V19.0502C6.37573 19.4537 6.70275 19.7808 7.10634 19.7808C7.50992 19.7808 7.83694 19.4537 7.83694 19.0502V13.4717C7.83694 12.5867 8.55702 11.8666 9.44213 11.8666H25.462C26.3471 11.8666 27.0672 12.5867 27.0672 13.4717V13.5647C27.0672 13.9683 27.3942 14.2953 27.7978 14.2953Z" fill="#6B61A9"/>
<path d="M9.1538 31.5862C7.63551 31.5862 6.40021 32.8215 6.40021 34.3398C6.40021 35.8581 7.63551 37.0934 9.1538 37.0934C10.6722 37.0934 11.9075 35.8581 11.9075 34.3398C11.9075 32.8215 10.6722 31.5862 9.1538 31.5862V31.5862ZM9.1538 35.6321C8.44122 35.6321 7.86142 35.0524 7.86142 34.3397C7.86142 33.6271 8.44113 33.0473 9.1538 33.0473C9.86648 33.0473 10.4463 33.6271 10.4463 34.3397C10.4463 35.0524 9.86648 35.6321 9.1538 35.6321Z" fill="#6B61A9"/>
<path d="M9.1538 39.949C7.63551 39.949 6.40021 41.1843 6.40021 42.7027C6.40021 44.221 7.63551 45.4563 9.1538 45.4563C10.6722 45.4563 11.9075 44.221 11.9075 42.7027C11.9075 41.1842 10.6722 39.949 9.1538 39.949ZM9.1538 43.995C8.44122 43.995 7.86142 43.4153 7.86142 42.7026C7.86142 41.9899 8.44113 41.4101 9.1538 41.4101C9.86648 41.4101 10.4463 41.9899 10.4463 42.7026C10.4463 43.4153 9.86648 43.995 9.1538 43.995V43.995Z" fill="#6B61A9"/>
<path d="M19.1976 31.5862H14.3372C13.9336 31.5862 13.6066 31.9132 13.6066 32.3168C13.6066 32.7203 13.9336 33.0474 14.3372 33.0474H19.1976C19.6012 33.0474 19.9282 32.7203 19.9282 32.3168C19.9282 31.9132 19.6011 31.5862 19.1976 31.5862Z" fill="#6B61A9"/>
<path d="M21.7435 35.6321H14.3372C13.9336 35.6321 13.6066 35.9592 13.6066 36.3627C13.6066 36.7663 13.9336 37.0934 14.3372 37.0934H21.7435C22.1471 37.0934 22.4741 36.7663 22.4741 36.3627C22.4741 35.9592 22.1471 35.6321 21.7435 35.6321Z" fill="#6B61A9"/>
<path d="M26.6876 39.949H14.3372C13.9336 39.949 13.6066 40.2761 13.6066 40.6796C13.6066 41.0832 13.9336 41.4102 14.3372 41.4102H26.6876C27.0911 41.4102 27.4182 41.0832 27.4182 40.6796C27.4182 40.2761 27.0911 39.949 26.6876 39.949Z" fill="#6B61A9"/>
<path d="M26.6876 43.995H14.3372C13.9336 43.995 13.6066 44.322 13.6066 44.7256C13.6066 45.1292 13.9336 45.4562 14.3372 45.4562H26.6876C27.0911 45.4562 27.4182 45.1292 27.4182 44.7256C27.4182 44.322 27.0911 43.995 26.6876 43.995Z" fill="#6B61A9"/>
<path d="M21.9348 20.6021L21.3537 19.9286C21.7558 19.2517 21.9878 18.4624 21.9878 17.6194C21.9878 15.1184 19.953 13.0836 17.452 13.0836C14.951 13.0836 12.9163 15.1184 12.9163 17.6194C12.9163 18.4623 13.1481 19.2517 13.5503 19.9286L12.9692 20.6021C12.0023 21.7228 11.4697 23.1553 11.4697 24.6355V26.2336H9.44213C8.55702 26.2336 7.83694 25.5135 7.83694 24.6284V22.1635C7.83694 21.7599 7.50992 21.4329 7.10634 21.4329C6.70275 21.4329 6.37573 21.7599 6.37573 22.1635V24.6284C6.37573 26.3191 7.75131 27.6948 9.44213 27.6948H24.6515C25.0551 27.6948 25.3822 27.3677 25.3822 26.9642C25.3822 26.5606 25.0551 26.2336 24.6515 26.2336H23.4344V24.6355C23.4344 23.1554 22.9018 21.7229 21.9348 20.6021V20.6021ZM17.4521 14.545C19.1474 14.545 20.5267 15.9241 20.5267 17.6195C20.5267 19.3147 19.1475 20.694 17.4521 20.694C15.7569 20.694 14.3776 19.3148 14.3776 17.6195C14.3776 15.9241 15.7568 14.545 17.4521 14.545ZM12.9311 24.6356C12.9311 23.5056 13.3376 22.4122 14.0757 21.5567L14.5031 21.0614C15.2967 21.7423 16.3268 22.1552 17.4521 22.1552C18.5774 22.1552 19.6075 21.7424 20.4011 21.0614L20.8284 21.5567C21.5666 22.4123 21.9732 23.5058 21.9732 24.6356V26.2336H12.9311V24.6356Z" fill="#6B61A9"/>
<path d="M34.8544 40.2946C34.7166 39.8505 34.2803 39.5567 33.8168 39.5961C32.54 39.7049 31.282 39.3265 30.2768 38.5304L23.2875 32.9947C22.7578 32.575 22.636 31.8315 23.0045 31.265C23.3829 30.683 24.1492 30.5007 24.7491 30.849L28.5296 33.0449C28.8921 33.2555 29.3382 33.2227 29.6659 32.9614C29.9936 32.7002 30.1251 32.2728 30.0008 31.8728L28.1652 25.9611C28.0455 25.5757 27.6362 25.3604 27.2508 25.48C26.8654 25.5997 26.65 26.0091 26.7696 26.3944L28.2616 31.1994L25.4831 29.5856C24.2096 28.8458 22.5828 29.2335 21.7796 30.4683C20.9975 31.6708 21.2556 33.2494 22.3803 34.1401L29.3697 39.6758C30.5694 40.6261 32.0487 41.1138 33.5662 41.0733L36.1327 49.3386C36.23 49.6518 36.5186 49.8526 36.8303 49.8526C36.9019 49.8526 36.9749 49.842 37.0471 49.8196C37.4325 49.6999 37.6478 49.2904 37.5282 48.9051L34.8544 40.2946Z" fill="#6B61A9"/>
<path d="M48.88 44.9179L46.442 37.0662C46.4057 36.9493 46.3917 36.8283 46.4007 36.7064L46.4304 36.2992C46.5593 34.5299 46.3693 32.7684 45.8657 31.0637C45.8647 31.0606 45.8638 31.0574 45.8629 31.0542L43.0425 21.9633C42.6082 20.5652 41.1177 19.7807 39.7197 20.2153C39.1824 20.3821 38.7357 20.7051 38.4141 21.1188C37.739 20.4624 36.7343 20.1849 35.7733 20.4836C35.2127 20.6577 34.7508 21.0016 34.4266 21.4416C33.7536 20.8404 32.7904 20.596 31.8675 20.8827C31.4577 21.0099 31.1012 21.2285 30.8122 21.5084L29.5878 17.5653C29.1537 16.1673 27.6629 15.3826 26.265 15.8172C24.867 16.2512 24.0829 17.7419 24.517 19.1398L25.8462 23.4204C25.9659 23.8058 26.3753 24.0211 26.7606 23.9015C27.146 23.7818 27.3614 23.3724 27.2417 22.9871L25.9125 18.7064C25.7173 18.0779 26.0699 17.4076 26.6983 17.2125C27.3263 17.0169 27.997 17.3699 28.1922 17.9985L31.3017 28.012C31.4213 28.3972 31.8301 28.6127 32.2161 28.4931C32.6014 28.3733 32.8167 27.9639 32.6971 27.5785L31.5149 23.7715C31.32 23.143 31.6726 22.4731 32.3009 22.2779C32.9291 22.0827 33.5997 22.4353 33.7948 23.0638L34.9768 26.8706C35.0741 27.1838 35.3627 27.3847 35.6744 27.3847C35.7461 27.3847 35.819 27.3741 35.8913 27.3517C36.2766 27.2319 36.492 26.8225 36.3723 26.4372L35.4206 23.3723C35.2257 22.7438 35.5783 22.0739 36.2066 21.8787C36.8348 21.6833 37.5054 22.0361 37.7005 22.6646L38.6521 25.7292C38.7494 26.0425 39.0381 26.2434 39.3497 26.2434C39.4214 26.2434 39.4944 26.2328 39.5665 26.2104C39.9519 26.0906 40.1673 25.6812 40.0477 25.2959L39.3668 23.1031C39.1724 22.4748 39.5249 21.8053 40.1531 21.6104C40.4575 21.5157 40.7806 21.5456 41.0628 21.6939C41.3449 21.8422 41.5524 22.0918 41.6469 22.3961L44.4659 31.482C44.9185 33.0159 45.089 34.6008 44.9731 36.1924L44.9434 36.5995C44.9212 36.9043 44.9559 37.2068 45.0466 37.4989L47.4845 45.3506C47.5818 45.6639 47.8705 45.8648 48.1821 45.8648C48.2538 45.8648 48.3268 45.8541 48.399 45.8317C48.7841 45.7127 48.9995 45.3033 48.88 44.9179V44.9179Z" fill="#6B61A9"/>
</g>
<defs>
<clipPath id="clip0_4_1567">
<rect width="50" height="50" fill="white"/>
</clipPath>
</defs>
</svg>
