<svg width="50" height="50" viewBox="0 0 50 50" fill="none" xmlns="http://www.w3.org/2000/svg">
<g clip-path="url(#clip0_4_1580)">
<path d="M49.2665 41.1839H48.0523V15.3311C48.0523 12.6884 45.9023 10.5384 43.2595 10.5384H37.8009C37.3957 10.5384 37.0674 10.8667 37.0674 11.2719C37.0674 11.6771 37.3957 12.0054 37.8009 12.0054H43.2595C45.0934 12.0054 46.5853 13.4973 46.5853 15.3311V41.1839H30.1888C29.6883 41.1839 29.2213 41.4308 28.9398 41.8446L28.7198 42.1679C28.5154 42.4682 28.1766 42.6475 27.8132 42.6475H22.0889C21.7255 42.6475 21.3867 42.4682 21.1823 42.1679L20.9624 41.8447C20.6809 41.431 20.214 41.1839 19.7134 41.1839H3.4147V15.3311C3.4147 13.4973 4.90664 12.0054 6.74049 12.0054H11.4646C11.8698 12.0054 12.1981 11.6771 12.1981 11.2719C12.1981 10.8667 11.8698 10.5384 11.4646 10.5384H6.74049C4.09783 10.5384 1.94769 12.6883 1.94769 15.3311V41.1839H0.733502C0.328316 41.1839 0 41.5122 0 41.9174V43.4445C0 46.2055 2.24628 48.4518 5.00728 48.4518H44.9927C47.7537 48.4518 50 46.2055 50 43.4445V41.9174C50 41.5122 49.6717 41.1839 49.2665 41.1839V41.1839ZM48.533 43.4445C48.533 45.3966 46.9448 46.9848 44.9927 46.9848H5.00728C3.05518 46.9848 1.467 45.3966 1.467 43.4445V42.6509H19.7134C19.7279 42.6509 19.7414 42.6579 19.7496 42.67L19.9695 42.9932C20.4474 43.6953 21.2396 44.1145 22.0889 44.1145H27.8132C28.6625 44.1145 29.4547 43.6953 29.9326 42.9932L30.1525 42.67L30.1526 42.6699C30.1607 42.6579 30.1742 42.6509 30.1887 42.6509H48.5329V43.4445H48.533Z" fill="#6B61A9"/>
<path d="M5.07703 38.7878C5.07703 39.193 5.40534 39.5213 5.81053 39.5213H44.1889C44.5941 39.5213 44.9224 39.193 44.9224 38.7878V15.3311C44.9224 14.414 44.1763 13.6679 43.2592 13.6679H37.8006C37.3954 13.6679 37.0671 13.9962 37.0671 14.4014C37.0671 14.8066 37.3954 15.1349 37.8006 15.1349H43.2592C43.3674 15.1349 43.4554 15.2228 43.4554 15.3311V38.0543H32.8151V35.0595C32.8151 33.4668 32.1949 31.9695 31.0687 30.8432L30.1137 29.8882C30.4525 29.3628 30.7149 28.7796 30.8808 28.1508C30.9842 27.7592 30.7505 27.3579 30.3588 27.2544C29.9669 27.1513 29.5659 27.3848 29.4624 27.7765C29.2924 28.4204 28.99 29.0021 28.5897 29.4964C28.5867 29.4999 28.5838 29.5033 28.581 29.5067C27.7242 30.5585 26.4219 31.2105 24.9997 31.2105C22.4546 31.2105 20.3838 29.1398 20.3838 26.5946C20.3838 24.0495 22.4546 21.9788 24.9997 21.9788C26.9638 21.9788 28.716 23.2252 29.3603 25.0805C29.4931 25.4631 29.9105 25.6657 30.2938 25.5328C30.6764 25.4 30.8789 24.982 30.7461 24.5993C29.8972 22.1544 27.5879 20.5118 24.9997 20.5118C21.6456 20.5118 18.9168 23.2405 18.9168 26.5946C18.9168 27.8068 19.2746 28.9363 19.8881 29.8858L18.9307 30.8432C17.8045 31.9695 17.1843 33.4668 17.1843 35.0595V38.0543H6.54403V35.367C6.54403 34.9618 6.21572 34.6335 5.81053 34.6335C5.40534 34.6335 5.07703 34.9618 5.07703 35.367V38.7878ZM18.6513 35.0594C18.6513 33.8586 19.119 32.7297 19.9682 31.8805L20.8307 31.018C21.9204 32.0456 23.3873 32.6774 24.9997 32.6774C26.5919 32.6774 28.0698 32.0567 29.171 31.0201L30.0314 31.8804C30.8806 32.7296 31.3482 33.8585 31.3482 35.0593V38.0541H18.6513V35.0594Z" fill="#6B61A9"/>
<path d="M5.81053 32.9719C6.21572 32.9719 6.54403 32.6436 6.54403 32.2384V15.3311C6.54403 15.2229 6.63195 15.1349 6.74012 15.1349H11.4644C11.8695 15.1349 12.1979 14.8066 12.1979 14.4014C12.1979 13.9962 11.8695 13.6679 11.4644 13.6679H6.74012C5.82305 13.6679 5.07703 14.414 5.07703 15.3311V32.2384C5.07703 32.6435 5.40534 32.9719 5.81053 32.9719V32.9719Z" fill="#6B61A9"/>
<path d="M16.8535 18.9615H32.4113C34.1696 18.9615 35.5999 17.5311 35.5999 15.7728V4.73706C35.5999 2.97871 34.1695 1.54828 32.4113 1.54828H16.8535C15.0951 1.54828 13.6648 2.9788 13.6648 4.73706V6.27321C13.6648 6.67839 13.9931 7.00671 14.3983 7.00671C14.8035 7.00671 15.1318 6.67839 15.1318 6.27321V4.73706C15.1318 3.78761 15.9041 3.01528 16.8535 3.01528H32.4113C33.3606 3.01528 34.1329 3.78761 34.1329 4.73706V15.7728C34.1329 16.7222 33.3606 17.4945 32.4113 17.4945H16.8535C15.9041 17.4945 15.1318 16.7222 15.1318 15.7728V9.40174C15.1318 8.99655 14.8035 8.66824 14.3983 8.66824C13.9931 8.66824 13.6648 8.99655 13.6648 9.40174V15.7728C13.6648 17.5311 15.0952 18.9615 16.8535 18.9615Z" fill="#6B61A9"/>
<path d="M22.6748 14.8015C23.0043 14.8015 23.3337 14.7135 23.6333 14.5375L28.1449 11.8867C28.7296 11.5431 29.0787 10.9331 29.0787 10.2549C29.0787 9.57661 28.7295 8.96663 28.1449 8.62315L23.6332 5.97237C23.0408 5.6243 22.3308 5.62019 21.7345 5.96162C21.138 6.30294 20.782 6.91703 20.782 7.60417V12.9057C20.782 13.5929 21.1381 14.2071 21.7345 14.5484C22.0294 14.7171 22.3522 14.8015 22.6748 14.8015V14.8015ZM22.2489 7.60407C22.2489 7.38138 22.3986 7.27165 22.463 7.23478C22.5018 7.21258 22.5792 7.17698 22.6768 7.17698C22.7408 7.17698 22.8137 7.19243 22.89 7.23722L27.4017 9.888C27.5912 9.9993 27.6116 10.1816 27.6116 10.2548C27.6116 10.328 27.5911 10.5103 27.4016 10.6217L22.8901 13.2725C22.6979 13.3853 22.5275 13.3117 22.4632 13.2749C22.3987 13.2381 22.249 13.1282 22.249 12.9055V7.60407H22.2489Z" fill="#6B61A9"/>
</g>
<defs>
<clipPath id="clip0_4_1580">
<rect width="50" height="50" fill="white"/>
</clipPath>
</defs>
</svg>
