<svg width="50" height="50" viewBox="0 0 50 50" fill="none" xmlns="http://www.w3.org/2000/svg">
<g clip-path="url(#clip0_4_1587)">
<path d="M48.877 5.37109C49.4962 5.37109 50 4.86729 50 4.24805V1.12305C50 0.503809 49.4962 0 48.877 0H45.752C45.1327 0 44.6289 0.503809 44.6289 1.12305V1.95312H27.6855V1.12305C27.6855 0.503809 27.1817 0 26.5625 0H23.4375C22.8183 0 22.3145 0.503809 22.3145 1.12305V1.95312H5.37109V1.12305C5.37109 0.503809 4.86729 0 4.24805 0H1.12305C0.503809 0 0 0.503809 0 1.12305V4.24805C0 4.86729 0.503809 5.37109 1.12305 5.37109H1.95312V22.3145H1.12305C0.503809 22.3145 0 22.8183 0 23.4375V26.5625C0 27.1817 0.503809 27.6855 1.12305 27.6855H1.95312V44.6289H1.12305C0.503809 44.6289 0 45.1327 0 45.752V48.877C0 49.4962 0.503809 50 1.12305 50H4.24805C4.86729 50 5.37109 49.4962 5.37109 48.877V48.0469H22.3145V48.877C22.3145 49.4962 22.8183 50 23.4375 50H26.5625C27.1817 50 27.6855 49.4962 27.6855 48.877V48.0469H44.6289V48.877C44.6289 49.4962 45.1327 50 45.752 50H48.877C49.4962 50 50 49.4962 50 48.877V45.752C50 45.1327 49.4962 44.6289 48.877 44.6289H48.0469V37.2266C48.0469 36.8221 47.7189 36.4941 47.3145 36.4941C46.91 36.4941 46.582 36.8221 46.582 37.2266V44.6289H45.752C45.1327 44.6289 44.6289 45.1327 44.6289 45.752V46.582H27.6855V45.752C27.6855 45.1327 27.1817 44.6289 26.5625 44.6289H25.7324V27.6855H26.5625C27.1817 27.6855 27.6855 27.1817 27.6855 26.5625V23.4375C27.6855 22.8183 27.1817 22.3145 26.5625 22.3145H23.4375C22.8183 22.3145 22.3145 22.8183 22.3145 23.4375V24.2676H16.5283V23.4375C16.5283 22.8183 16.0245 22.3145 15.4053 22.3145H12.2803C11.661 22.3145 11.1572 22.8183 11.1572 23.4375V24.2676H5.37109V23.4375C5.37109 22.8183 4.86729 22.3145 4.24805 22.3145H3.41797V5.37109H4.24805C4.86729 5.37109 5.37109 4.86729 5.37109 4.24805V3.41797H22.3145V4.24805C22.3145 4.86729 22.8183 5.37109 23.4375 5.37109H26.5625C27.1817 5.37109 27.6855 4.86729 27.6855 4.24805V3.41797H44.6289V4.24805C44.6289 4.86729 45.1327 5.37109 45.752 5.37109H46.582V22.3145H45.752C45.1327 22.3145 44.6289 22.8183 44.6289 23.4375V26.5625C44.6289 27.1817 45.1327 27.6855 45.752 27.6855H46.582V33.8086C46.582 34.2131 46.91 34.541 47.3145 34.541C47.7189 34.541 48.0469 34.2131 48.0469 33.8086V27.6855H48.877C49.4962 27.6855 50 27.1817 50 26.5625V23.4375C50 22.8183 49.4962 22.3145 48.877 22.3145H48.0469V5.37109H48.877ZM46.0938 46.0938H48.5352V48.5352H46.0938V46.0938ZM3.90625 48.5352H1.46484V46.0938H3.90625V48.5352ZM4.24805 44.6289H3.41797V42.1474L6.62285 36.5961C6.73682 36.3983 6.92617 36.377 7.00234 36.3769H7.00254C7.079 36.3769 7.26885 36.3983 7.3833 36.5966L12.1626 44.8745C12.1641 44.8769 12.1653 44.8794 12.1668 44.8817L13.1484 46.582H5.37109V45.752C5.37109 45.1327 4.86729 44.6289 4.24805 44.6289V44.6289ZM26.2207 48.5352H23.7793V46.0938H26.2207V48.5352ZM23.4375 44.6289C22.8183 44.6289 22.3145 45.1327 22.3145 45.752V46.582H14.8398L13.6359 44.4969L19.561 34.2355C19.6756 34.0371 19.8653 34.0156 19.9418 34.0156H19.942C20.0182 34.0156 20.2075 34.0371 20.3218 34.2354L24.2676 41.0693V44.6289H23.4375ZM23.7793 23.7793H26.2207V26.2207H23.7793V23.7793ZM12.6221 23.7793H15.0635V26.2207H12.6221V23.7793ZM11.1572 25.7324V26.5625C11.1572 27.1817 11.661 27.6855 12.2803 27.6855H15.4053C16.0245 27.6855 16.5283 27.1817 16.5283 26.5625V25.7324H22.3145V26.5625C22.3145 27.1817 22.8183 27.6855 23.4375 27.6855H24.2676V38.1397L21.5906 33.5034C21.2471 32.9072 20.631 32.5511 19.9427 32.5508C19.9424 32.5508 19.9421 32.5508 19.9417 32.5508C19.2533 32.5508 18.6368 32.9066 18.2924 33.5029L12.7901 43.0321L8.65176 35.8643C8.30742 35.2681 7.69102 34.9122 7.00254 34.9122C7.00225 34.9122 7.00195 34.9122 7.00166 34.9122C6.31328 34.9125 5.69727 35.2687 5.35391 35.8644L3.41797 39.2177V27.6855H4.24805C4.86729 27.6855 5.37109 27.1817 5.37109 26.5625V25.7324H11.1572ZM3.90625 26.2207H1.46484V23.7793H3.90625V26.2207ZM3.90625 3.90625H1.46484V1.46484H3.90625V3.90625ZM26.2207 3.90625H23.7793V1.46484H26.2207V3.90625ZM48.5352 26.2207H46.0938V23.7793H48.5352V26.2207ZM46.0938 1.46484H48.5352V3.90625H46.0938V1.46484Z" fill="#6B61A9"/>
<path d="M11.8164 34.3573C13.2434 34.3573 14.4043 33.1964 14.4043 31.7694C14.4043 30.3425 13.2434 29.1815 11.8164 29.1815C10.3895 29.1815 9.22852 30.3425 9.22852 31.7694C9.22852 33.1964 10.3895 34.3573 11.8164 34.3573ZM11.8164 30.6464C12.4356 30.6464 12.9395 31.1502 12.9395 31.7694C12.9395 32.3887 12.4356 32.8925 11.8164 32.8925C11.1972 32.8925 10.6934 32.3887 10.6934 31.7694C10.6934 31.1502 11.1972 30.6464 11.8164 30.6464Z" fill="#6B61A9"/>
<path d="M43.2799 5.81435H40.456C40.0515 5.81435 39.7236 6.14228 39.7236 6.54678C39.7236 6.95127 40.0515 7.2792 40.456 7.2792H41.707L29.5861 19.4001V18.149C29.5861 17.7445 29.2581 17.4166 28.8536 17.4166C28.4491 17.4166 28.1212 17.7445 28.1212 18.149V20.9729C28.1212 21.4845 28.5374 21.9007 29.049 21.9007H31.8729C32.2774 21.9007 32.6053 21.5728 32.6053 21.1683C32.6053 20.7638 32.2774 20.4358 31.8729 20.4358H30.6219L42.7428 8.31494V9.56601C42.7428 9.97051 43.0707 10.2984 43.4752 10.2984C43.8797 10.2984 44.2076 9.97051 44.2076 9.56601V6.74209C44.2076 6.23056 43.7914 5.81435 43.2799 5.81435V5.81435Z" fill="#6B61A9"/>
</g>
<defs>
<clipPath id="clip0_4_1587">
<rect width="50" height="50" fill="white"/>
</clipPath>
</defs>
</svg>
