<svg width="55" height="55" viewBox="0 0 55 55" fill="none" xmlns="http://www.w3.org/2000/svg">
<path d="M13.6314 40.8018C10.9252 43.195 9.37305 46.6393 9.37305 50.2517V54.1887C9.37305 54.6369 9.7363 55 10.1844 55C10.6324 55 10.9957 54.6369 10.9957 54.1887V50.2517C10.9957 47.1039 12.3481 44.1026 14.7062 42.0173C15.0419 41.7205 15.0734 41.2078 14.7765 40.872C14.4797 40.5365 13.9669 40.5049 13.6314 40.8018V40.8018Z" fill="#6B61A9"/>
<path d="M38.8699 39.3176L31.2407 34.9272V33.6417C32.189 33.2156 33.0697 32.6325 33.847 31.9062C34.1743 31.6003 34.1918 31.0869 33.8858 30.7595C33.5798 30.4321 33.0664 30.4146 32.739 30.7207C31.2675 32.0957 29.3492 32.8531 27.3375 32.8531C22.9732 32.8531 19.4225 29.3024 19.4225 24.9381V16.942L21.5303 16.3572C22.3635 16.1262 23.2474 16.114 24.0863 16.3221L26.1037 16.8225C27.4813 17.1643 28.904 17.0616 30.2182 16.5255C31.0021 16.2057 31.8608 16.0891 32.7017 16.1869L35.2524 16.4848V24.9381C35.2524 26.0595 35.0205 27.1461 34.5632 28.1676C34.3801 28.5765 34.5632 29.0564 34.9721 29.2395C35.0798 29.2877 35.1924 29.3105 35.3032 29.3105C35.6133 29.3105 35.9093 29.1318 36.0442 28.8305C36.5956 27.5992 36.8751 26.2896 36.8751 24.9381V24.2528H37.345C38.9334 24.2528 40.2256 22.9606 40.2256 21.3723C40.2256 20.4656 39.804 19.6558 39.147 19.1274L39.955 16.0997C40.8462 15.5668 41.553 14.7288 41.9002 13.695C42.566 11.7121 41.7858 9.56362 40.0026 8.46996L38.3439 7.45289L38.3128 7.34883C37.3391 4.0975 34.2925 1.94156 30.9013 2.10728C30.7025 2.11778 30.5007 2.07667 30.32 1.99067L27.8574 0.817721C25.4914 -0.309253 22.7968 -0.269769 20.4648 0.926437C18.1341 2.12178 16.5302 4.28529 16.064 6.86258L14.0915 8.66359C12.2915 10.307 11.9456 12.9855 13.2691 15.0323C13.6852 15.6758 14.2278 16.196 14.8473 16.5762L15.5281 19.1273C14.8711 19.6558 14.4496 20.4655 14.4496 21.3722C14.4496 22.9605 15.7417 24.2527 17.3301 24.2527H17.8V24.938C17.8 28.7649 20.0659 32.0721 23.3262 33.5898V34.9271L16.8113 38.6762C16.4229 38.8997 16.2892 39.3957 16.5127 39.7841C16.6628 40.0449 16.9359 40.1909 17.2166 40.1909C17.3539 40.1909 17.493 40.156 17.6205 40.0827L23.3724 36.7728C23.6644 38.6688 25.307 40.1253 27.2834 40.1253C29.2598 40.1253 30.9024 38.6688 31.1944 36.7728L38.0604 40.7239C41.4591 42.6797 43.5703 46.3305 43.5703 50.2517V54.1887C43.5703 54.6369 43.9336 55 44.3817 55C44.8297 55 45.193 54.6369 45.193 54.1887V50.2517C45.1932 45.7517 42.7703 41.562 38.8699 39.3176V39.3176ZM37.3452 22.6302H36.8752V20.1144H37.3452C38.0388 20.1144 38.603 20.6787 38.603 21.3723C38.603 22.0659 38.0388 22.6302 37.3452 22.6302ZM37.6334 18.5063C37.5386 18.4968 37.4425 18.4918 37.3452 18.4918H36.8752V16.6743L37.1522 16.7067C37.4757 16.7445 37.7971 16.7458 38.1118 16.7137L37.6334 18.5063ZM15.1856 9.86197L17.3608 7.87597C17.4922 7.75589 17.5806 7.59601 17.6122 7.42076L17.6601 7.15498C18.0348 5.07757 19.3271 3.33367 21.2053 2.37037C22.1745 1.8733 23.2211 1.62428 24.2693 1.62428C25.2525 1.62428 26.2372 1.84355 27.1597 2.28296L29.6224 3.45591C30.0443 3.65679 30.5144 3.75123 30.9803 3.7283C33.6236 3.59957 35.9992 5.28008 36.7584 7.81463L36.8784 8.21542C36.9356 8.40668 37.0613 8.56991 37.2316 8.6743L39.1545 9.85342C40.2893 10.5494 40.7859 11.9167 40.3622 13.1785C39.9373 14.4441 38.6671 15.2503 37.3405 15.0952L32.8904 14.5753C31.7781 14.4452 30.6424 14.6001 29.6056 15.0231C28.6121 15.4284 27.5364 15.5062 26.4947 15.2477L24.4773 14.7473C23.3677 14.4721 22.1987 14.4881 21.0968 14.7938L18.3377 15.5594C16.9202 15.9521 15.4308 15.3867 14.6321 14.1513C13.7404 12.7728 13.9733 10.9688 15.1856 9.86197V9.86197ZM16.7068 17.2509C16.9451 17.2862 17.1864 17.3062 17.4301 17.3062C17.553 17.3062 17.6764 17.3006 17.8 17.2914V18.4918H17.3301C17.2328 18.4918 17.1366 18.4968 17.0418 18.5063L16.7068 17.2509ZM17.3301 22.6302C16.6364 22.6302 16.0722 22.0659 16.0722 21.3723C16.0722 20.6787 16.6364 20.1144 17.3301 20.1144H17.8V22.6302H17.3301ZM27.2835 38.5027C25.9962 38.5027 24.9489 37.4553 24.9489 36.1681V34.1727C25.7125 34.3704 26.513 34.4756 27.3376 34.4756C28.1141 34.4756 28.8788 34.381 29.6182 34.1992V36.168C29.6182 37.4554 28.5708 38.5027 27.2835 38.5027V38.5027Z" fill="#6B61A9"/>
<path d="M52.5823 29.3675L49.135 25.9395C48.7243 25.5313 48.0561 25.5312 47.6452 25.9395L44.1977 29.3677C43.8933 29.6705 43.8025 30.1227 43.9663 30.5196C44.13 30.9165 44.5134 31.173 44.9428 31.173H45.9922C45.8938 32.8557 45.3193 34.4543 44.3158 35.8246L43.9532 36.3197C43.6515 36.7318 43.6689 37.2937 43.9953 37.6862C44.2121 37.9469 44.5271 38.0872 44.8491 38.0871C45.012 38.0871 45.1766 38.0512 45.3312 37.9768L46.6583 37.3379C49.0424 36.1899 50.6219 33.7986 50.7629 31.173H51.8377C52.267 31.173 52.6503 30.9165 52.8141 30.5196C52.9779 30.1227 52.8871 29.6705 52.5826 29.3677C52.5824 29.3676 52.5823 29.3676 52.5823 29.3675ZM49.9618 29.5503C49.5137 29.5503 49.1505 29.9135 49.1505 30.3616V30.7895C49.1505 32.7999 48.0586 34.6725 46.3356 35.6736C47.1857 34.1421 47.6299 32.429 47.6299 30.6519V30.3615C47.6299 29.9134 47.2667 29.5502 46.8186 29.5502H46.3153L48.3901 27.487L50.465 29.5502H49.9618V29.5503Z" fill="#6B61A9"/>
<path d="M48.3146 24.5513C51.8218 24.5513 54.675 21.698 54.675 18.1909C54.675 14.6837 51.8218 11.8304 48.3146 11.8304C44.8074 11.8304 41.9542 14.6837 41.9542 18.1909C41.9542 21.698 44.8074 24.5513 48.3146 24.5513ZM48.3146 13.4531C50.927 13.4531 53.0524 15.5784 53.0524 18.1909C53.0524 20.8033 50.927 22.9286 48.3146 22.9286C45.7022 22.9286 43.5768 20.8033 43.5768 18.1909C43.5768 15.5784 45.7022 13.4531 48.3146 13.4531Z" fill="#6B61A9"/>
<path d="M10.6808 37.6862C11.0072 37.2937 11.0246 36.7318 10.7228 36.3196L10.3602 35.8246C9.3567 34.4543 8.78218 32.8557 8.68385 31.173H9.73326C10.1626 31.173 10.546 30.9165 10.7098 30.5196C10.8736 30.1227 10.7828 29.6704 10.4782 29.3675L7.03081 25.9395C6.62007 25.5313 5.95187 25.5312 5.54102 25.9395L2.09368 29.3675C2.09368 29.3676 2.09368 29.3676 2.09357 29.3677C1.78916 29.6706 1.69829 30.1227 1.86207 30.5196C2.02585 30.9165 2.40912 31.173 2.83847 31.173H3.91319C4.05425 33.7986 5.63372 36.1899 8.01781 37.3379L9.3448 37.9768C9.49938 38.0512 9.66403 38.0871 9.82694 38.0871C10.1489 38.0871 10.464 37.947 10.6808 37.6862V37.6862ZM8.34039 35.6737C6.61737 34.6724 5.52555 32.8 5.52555 30.7896V30.3618C5.52555 29.9136 5.1623 29.5504 4.71423 29.5504H4.21111L6.28602 27.4872L8.36083 29.5504H7.85749C7.40943 29.5504 7.04617 29.9136 7.04617 30.3618V30.6521C7.04607 32.4291 7.49024 34.1421 8.34039 35.6737V35.6737Z" fill="#6B61A9"/>
<path d="M6.36041 24.5513C9.86746 24.5513 12.7207 21.698 12.7207 18.1909C12.7207 14.6837 9.86746 11.8304 6.36041 11.8304C5.46568 11.8304 4.59833 12.0141 3.78236 12.3765C3.37281 12.5584 3.18826 13.0377 3.37011 13.4472C3.55195 13.8567 4.0316 14.0414 4.44083 13.8595C5.04823 13.5898 5.69404 13.4531 6.36041 13.4531C8.97274 13.4531 11.0981 15.5784 11.0981 18.1909C11.0981 20.8033 8.97274 22.9286 6.36041 22.9286C3.74796 22.9286 1.62264 20.8033 1.62264 18.1909C1.62264 17.3838 1.83001 16.5861 2.22247 15.884C2.44109 15.4928 2.30122 14.9985 1.91006 14.78C1.51879 14.5612 1.02464 14.7011 0.806017 15.0924C0.278661 16.0359 0 17.1074 0 18.191C0 21.698 2.85324 24.5513 6.36041 24.5513V24.5513Z" fill="#6B61A9"/>
<path d="M5.56482 21.0383C5.77241 21.0383 5.98011 20.9591 6.13848 20.8007L9.30359 17.6356C9.62044 17.3186 9.62044 16.805 9.30359 16.4882C8.98674 16.1714 8.47302 16.1714 8.15628 16.4882L5.56482 19.0796L5.21466 18.7295C4.89781 18.4127 4.38409 18.4127 4.06735 18.7295C3.7505 19.0464 3.7505 19.56 4.06735 19.8769L4.99117 20.8007C5.14954 20.9591 5.35723 21.0383 5.56482 21.0383V21.0383Z" fill="#6B61A9"/>
<path d="M46.0694 20.561C46.2261 20.708 46.4255 20.7808 46.6246 20.7808C46.8408 20.7808 47.0565 20.6949 47.2162 20.5249L48.257 19.4164L49.2977 20.5249C49.4575 20.6949 49.6732 20.7808 49.8893 20.7808C50.0884 20.7808 50.288 20.708 50.4445 20.561C50.7712 20.2542 50.7873 19.7408 50.4806 19.4141L49.3698 18.231L50.4806 17.0479C50.7873 16.7212 50.7712 16.2078 50.4445 15.901C50.1179 15.5943 49.6045 15.6103 49.2976 15.9371L48.2568 17.0456L47.2161 15.9371C46.9093 15.6104 46.396 15.5942 46.0692 15.901C45.7425 16.2078 45.7264 16.7212 46.0331 17.0479L47.1439 18.231L46.0331 19.4141C45.7266 19.7408 45.7428 20.2542 46.0694 20.561V20.561Z" fill="#6B61A9"/>
</svg>
