<svg width="47" height="34" viewBox="0 0 47 34" fill="none" xmlns="http://www.w3.org/2000/svg">
<path d="M46.9975 1.07093C46.9946 1.0285 46.9884 0.986281 46.9792 0.944171C46.9786 0.941808 46.9783 0.939444 46.9778 0.937081C46.9686 0.89755 46.9561 0.858449 46.9411 0.81967C46.9386 0.813224 46.9363 0.806672 46.9336 0.800226C46.931 0.794103 46.9292 0.78798 46.9264 0.781857C46.9128 0.750919 46.897 0.721486 46.8803 0.692912C46.8769 0.687004 46.8733 0.681203 46.8696 0.675402C46.8476 0.639738 46.8236 0.605792 46.7972 0.574318C46.7948 0.571632 46.7924 0.568947 46.79 0.566369C46.6989 0.460236 46.5844 0.378487 46.4571 0.326817C46.4557 0.32628 46.4543 0.325529 46.4529 0.324991C46.4121 0.308663 46.3699 0.295773 46.3268 0.28589C46.3244 0.285353 46.3222 0.284709 46.3198 0.284171C46.2776 0.274826 46.2346 0.268702 46.191 0.265694C46.1882 0.265587 46.1854 0.265372 46.1825 0.265265C46.1398 0.262794 46.0967 0.263224 46.0534 0.267198C46.05 0.267413 46.0465 0.268058 46.0432 0.26838C46.0007 0.272784 45.9581 0.279659 45.9157 0.290617L45.9145 0.290831C45.9142 0.290939 45.9137 0.291046 45.9133 0.291046L0.758123 11.8692C0.382039 11.9655 0.115741 12.2998 0.105643 12.6879C0.0955454 13.0759 0.344334 13.4235 0.714725 13.5393L14.0562 17.7085L16.3328 29.0914C16.3896 29.3755 16.5844 29.6126 16.852 29.7234C16.9588 29.7677 17.0717 29.7894 17.1843 29.7894C17.3534 29.7894 17.5214 29.7401 17.6661 29.6435L24.4136 25.1452L31.5968 32.9816C31.7628 33.1626 31.9956 33.2631 32.2369 33.2631C32.2833 33.2631 32.3303 33.2595 32.3769 33.2517C32.6659 33.2045 32.9116 33.0149 33.0306 32.7474L46.9252 1.48418C46.9265 1.48128 46.9271 1.47817 46.9284 1.47516C46.9447 1.43735 46.9583 1.39824 46.9692 1.3586C46.9709 1.35205 46.9725 1.34539 46.9741 1.33884C46.9839 1.29931 46.991 1.25945 46.9952 1.21874C46.9957 1.21316 46.996 1.20757 46.9965 1.20198C46.9999 1.1603 47.0009 1.1183 46.9982 1.07619C46.9981 1.07437 46.9976 1.07265 46.9975 1.07093ZM17.7815 27.4793L15.9454 18.299L19.0177 19.2592L23.2257 23.8497L17.7815 27.4793ZM31.9816 30.831L20.8323 18.668L27.5051 14.3162C27.9626 14.0178 28.0295 13.3742 27.6433 12.9881L27.6309 12.9756C27.3434 12.6882 26.8939 12.6413 26.5533 12.8635L19.3686 17.5491L4.149 12.7931L41.2467 3.28092L30.8057 10.0903C30.3437 10.3916 30.276 11.0417 30.6661 11.4318C30.9565 11.7221 31.4106 11.7694 31.7546 11.5451L35.556 9.06591L44.1448 3.46461L31.9816 30.831Z" fill="#6B61A9"/>
</svg>
