<svg width="44" height="50" viewBox="0 0 44 50" fill="none" xmlns="http://www.w3.org/2000/svg">
<path d="M32.0412 30.7702C32.2222 30.4003 32.069 29.9535 31.6991 29.7724C31.3293 29.5915 30.8824 29.7445 30.7013 30.1145C30.3234 30.8868 29.8629 31.6156 29.3327 32.281L27.1845 34.9764C27.0792 35.1084 27.0219 35.2723 27.0219 35.4412V49.2541C27.0219 49.666 27.3559 50 27.7678 50C28.1797 50 28.5137 49.666 28.5137 49.2541V35.7021L30.4993 33.2106C31.0969 32.4608 31.6157 31.6397 32.0412 30.7702V30.7702Z" fill="#6B61A9"/>
<path d="M27.5005 24.8191C27.5005 24.4072 27.1665 24.0732 26.7546 24.0732H24.7816C23.8689 24.0732 23.1264 23.3307 23.1264 22.418C23.1264 21.5052 23.8689 20.7628 24.7816 20.7628H29.5468C30.8456 20.7628 31.9022 21.8195 31.9022 23.1182V24.9337C31.9022 25.7137 31.8222 26.5035 31.6642 27.2808C31.5821 27.6845 31.8429 28.0783 32.2465 28.1602C32.2967 28.1705 32.3466 28.1753 32.3958 28.1753C32.7431 28.1753 33.0542 27.9314 33.126 27.5778C33.3038 26.703 33.3939 25.8133 33.3939 24.9337V23.1182C33.3939 21.5852 32.4923 20.2591 31.1916 19.6413V17.112C31.1916 15.5026 29.8822 14.1932 28.2728 14.1932C27.5429 14.1932 26.8754 14.4631 26.3631 14.9075C25.8404 14.1167 24.9439 13.5938 23.9271 13.5938C22.881 13.5938 21.9621 14.1474 21.4467 14.9766C20.9405 14.5549 20.2902 14.3008 19.5814 14.3008C18.6378 14.3008 17.7979 14.7512 17.264 15.448C16.7384 14.9392 16.0233 14.6251 15.2357 14.6251C13.6263 14.6251 12.317 15.9345 12.317 17.5439V19.3059C12.317 20.9154 13.6263 22.2247 15.2357 22.2247C16.0139 22.2247 16.7214 21.918 17.2452 21.4198C17.7781 22.1302 18.627 22.5908 19.5814 22.5908C20.4313 22.5908 21.1974 22.2254 21.7312 21.6438C21.6683 21.8917 21.6346 22.1509 21.6346 22.4181C21.6346 23.8047 22.5365 24.984 23.7842 25.4021C22.4379 26.6027 21.6346 28.3481 21.6346 30.1779V30.7193C21.6346 31.1312 21.9685 31.4652 22.3804 31.4652C22.7924 31.4652 23.1263 31.1312 23.1263 30.7193V30.1779C23.1263 28.4825 24.0255 26.881 25.4728 25.9983L26.1831 25.5651H26.7545C27.1665 25.565 27.5005 25.231 27.5005 24.8191V24.8191ZM28.2729 15.685C29.0597 15.685 29.6999 16.3251 29.6999 17.112V19.2711H26.846V17.112C26.846 16.3251 27.486 15.685 28.2729 15.685ZM15.2357 20.733C14.4489 20.733 13.8087 20.0928 13.8087 19.3059V17.5439C13.8087 16.757 14.4489 16.1169 15.2357 16.1169C16.0226 16.1169 16.6627 16.757 16.6627 17.5439V19.3059C16.6627 20.0928 16.0226 20.733 15.2357 20.733ZM19.5814 21.099C18.7946 21.099 18.1544 20.4589 18.1544 19.672V17.2196C18.1544 16.4327 18.7946 15.7926 19.5814 15.7926C20.3683 15.7926 21.0084 16.4327 21.0084 17.2196V19.672C21.0084 20.459 20.3683 21.099 19.5814 21.099ZM22.5002 20.2538V16.5125C22.5002 15.7256 23.1403 15.0855 23.9272 15.0855C24.7141 15.0855 25.3542 15.7256 25.3542 16.5125V19.271H24.7816C23.8841 19.2711 23.074 19.6493 22.5002 20.2538Z" fill="#6B61A9"/>
<path d="M15.2329 32.4242C14.4627 31.3954 14.0384 30.1211 14.0384 28.8359V23.5436C14.0384 23.1317 13.7045 22.7977 13.2926 22.7977C12.8806 22.7977 12.5467 23.1317 12.5467 23.5436V28.8359C12.5467 30.4413 13.0766 32.0331 14.0387 33.3183L14.4902 33.9212V40.5473C14.4902 40.9593 14.8241 41.2932 15.236 41.2932C15.648 41.2932 15.9819 40.9593 15.9819 40.5473V33.6729C15.9819 33.5117 15.9297 33.3549 15.833 33.2259L15.2329 32.4242Z" fill="#6B61A9"/>
<path d="M15.2359 42.9954C14.824 42.9954 14.4901 43.3293 14.4901 43.7412V49.2541C14.4901 49.666 14.824 49.9999 15.2359 49.9999C15.6479 49.9999 15.9818 49.666 15.9818 49.2541V43.7412C15.9818 43.3293 15.6479 42.9954 15.2359 42.9954Z" fill="#6B61A9"/>
<path d="M9.74841 14.6868C8.77299 15.7045 7.95511 16.8471 7.31754 18.0829C6.64645 19.3834 6.18122 20.7737 5.93468 22.215C5.86526 22.6211 6.13805 23.0066 6.54411 23.076C6.58668 23.0832 6.62904 23.0867 6.67071 23.0867C7.02744 23.0867 7.3429 22.8299 7.40505 22.4666C7.62583 21.1761 8.04243 19.9313 8.64321 18.7668C9.21505 17.6585 9.9492 16.6331 10.8254 15.719C11.1104 15.4217 11.1004 14.9495 10.803 14.6645C10.5056 14.3795 10.0334 14.3894 9.74841 14.6868V14.6868Z" fill="#6B61A9"/>
<path d="M21.5769 7.26826L22.6653 5.9216L27.7346 11.2102C27.8811 11.363 28.0769 11.4399 28.2732 11.4399C28.4588 11.4399 28.6446 11.3711 28.7892 11.2326C29.0866 10.9474 29.0967 10.4753 28.8116 10.178L23.1562 4.27788C23.0079 4.12314 22.8007 4.04009 22.5862 4.04885C22.3722 4.0579 22.1723 4.15854 22.0377 4.32522L20.4169 6.33064C20.1579 6.65107 20.2078 7.12067 20.5282 7.37954C20.8486 7.63841 21.3179 7.58869 21.5769 7.26826V7.26826Z" fill="#6B61A9"/>
<path d="M37.4411 10.5577L34.9013 7.90814C34.6163 7.61079 34.1441 7.60074 33.8467 7.88587C33.5494 8.17089 33.5393 8.64308 33.8245 8.94044L36.3642 11.59C40.4785 15.8822 42.3136 21.7133 41.3989 27.5882C41.3356 27.9953 41.6141 28.3765 42.0212 28.4399C42.0601 28.446 42.0986 28.4488 42.1368 28.4488C42.4981 28.4488 42.8156 28.1858 42.8729 27.8176C43.8597 21.4795 41.88 15.1884 37.4411 10.5577V10.5577Z" fill="#6B61A9"/>
<path d="M1.48294 27.5881C1.41959 27.181 1.03819 26.9023 0.631242 26.9658C0.224192 27.0292 -0.0543692 27.4106 0.00898071 27.8175C0.717665 32.3697 2.8473 36.4217 6.16735 39.5352C6.31126 39.6701 6.49454 39.7369 6.67743 39.7369C6.87633 39.7369 7.07484 39.6579 7.22163 39.5012C7.50337 39.2008 7.48825 38.7287 7.18781 38.447C4.11271 35.5633 2.14001 31.8084 1.48294 27.5881Z" fill="#6B61A9"/>
<path d="M23.675 0.507794C23.3474 0.165982 22.8881 -0.018001 22.415 0.00139187C21.9419 0.0213814 21.4999 0.244051 21.2022 0.612316L17.569 5.10768L17.4547 4.89754C17.2484 4.51764 16.8693 4.25658 16.4408 4.1992C16.0125 4.14161 15.5779 4.29377 15.2788 4.60585L11.5488 8.49705C11.2638 8.7944 11.2737 9.26659 11.5712 9.55162C11.8685 9.83664 12.3407 9.8267 12.6257 9.52924L16.2304 5.76872L16.7916 6.80142C16.9106 7.02041 17.131 7.1654 17.3792 7.18808C17.6278 7.21085 17.8704 7.10792 18.0271 6.91419L22.3624 1.55003C22.3994 1.50439 22.4457 1.49315 22.4781 1.49176C22.5102 1.49046 22.5575 1.49772 22.5981 1.53999L34.2103 13.6545C37.6756 17.2697 39.2212 22.1809 38.4508 27.1291C37.6805 32.0773 34.7149 36.2862 30.3145 38.6767C29.9525 38.8734 29.8185 39.3262 30.0151 39.6881C30.1503 39.9369 30.4066 40.078 30.6712 40.078C30.7915 40.078 30.9136 40.0489 31.0266 39.9874C35.8391 37.3731 39.0823 32.7701 39.9249 27.3586C40.7674 21.9471 39.0772 16.576 35.2873 12.6223L23.675 0.507794Z" fill="#6B61A9"/>
<path d="M12.5672 38.6766C8.16686 36.2861 5.20135 32.0772 4.4309 27.1291C3.66046 22.1809 5.20612 17.2697 8.67147 13.6545L10.4233 11.8269C10.7083 11.5296 10.6984 11.0574 10.4009 10.7724C10.1036 10.4873 9.63136 10.4973 9.34634 10.7947L7.59462 12.6223C3.80486 16.576 2.1145 21.9472 2.95705 27.3587C3.79959 32.7702 7.04287 37.3733 11.8553 39.9875C11.9685 40.049 12.0904 40.0781 12.2106 40.0781C12.4753 40.0781 12.7315 39.937 12.8667 39.6882C13.0632 39.3261 12.9292 38.8732 12.5672 38.6766V38.6766Z" fill="#6B61A9"/>
</svg>
