<svg width="46" height="50" viewBox="0 0 46 50" fill="none" xmlns="http://www.w3.org/2000/svg">
<path d="M32.8252 24.6112C32.6942 24.3094 32.604 23.9911 32.5572 23.6652C32.4353 22.8186 32.2012 21.9905 31.8615 21.204C31.7012 20.8329 31.2705 20.6618 30.8989 20.8223C30.5276 20.9827 30.3568 21.4136 30.5172 21.7848C30.8056 22.4524 31.0043 23.1553 31.1077 23.8738C31.1732 24.3285 31.299 24.7727 31.4817 25.1939L33.0711 28.859C33.7424 30.4068 33.528 32.1285 32.4976 33.4645C31.6197 34.6026 30.3203 35.2365 28.9238 35.2417C29.3286 34.389 29.556 33.4363 29.556 32.4313V25.6929C29.556 24.8762 28.9164 24.2196 28.0998 24.198L23.957 24.0888C22.5442 24.0515 21.1625 23.5399 20.0663 22.6481L19.7937 22.4262C19.5392 22.2191 19.2196 22.1246 18.8933 22.1592C18.5671 22.194 18.2746 22.3542 18.0697 22.6103C16.9949 23.9532 16.4029 25.64 16.4029 27.36V32.4313C16.4029 33.4363 16.6303 34.3889 17.0351 35.2417C15.6388 35.2366 14.3392 34.6027 13.4614 33.4645C12.4309 32.1285 12.2165 30.4069 12.8878 28.859L14.4772 25.194C14.6599 24.7727 14.7858 24.3285 14.8513 23.8738C15.1325 21.919 16.1095 20.1301 17.6021 18.8369C19.0947 17.5436 21.0045 16.8314 22.9794 16.8314C25.2112 16.8314 27.2996 17.7123 28.8598 19.312C29.142 19.6017 29.6057 19.6073 29.8952 19.325C30.1846 19.0428 30.1905 18.579 29.9082 18.2896C28.0701 16.4049 25.6094 15.3669 22.9793 15.3669C20.6521 15.3669 18.4018 16.2062 16.6431 17.73C14.8844 19.2538 13.7331 21.3617 13.4016 23.6651C13.3548 23.9911 13.2647 24.3094 13.1336 24.6112L11.5442 28.2762C10.6576 30.3205 10.9407 32.5944 12.3017 34.3589C13.4659 35.8682 15.1906 36.7094 17.0437 36.7093C17.3377 36.7093 17.6355 36.6873 17.9344 36.6442C18.4509 37.2617 19.0786 37.7829 19.7862 38.1777V39.5908L16.0424 41.0928C13.4192 42.1452 11.7242 44.6517 11.7242 47.4782V49.2676C11.7242 49.6721 12.052 49.9999 12.4565 49.9999C12.861 49.9999 13.1887 49.6721 13.1887 49.2676V47.4782C13.1887 45.2533 14.5229 43.2804 16.5877 42.452L19.9577 41.1C20.3786 42.3102 21.53 43.1814 22.8817 43.1814C24.2334 43.1814 25.3849 42.3101 25.8058 41.1L29.1761 42.4522C29.2646 42.4876 29.358 42.5287 29.4703 42.5816C29.571 42.6289 29.6771 42.6514 29.7815 42.6514C30.0564 42.6514 30.3199 42.4958 30.4446 42.2306C30.6168 41.8647 30.4596 41.4284 30.0937 41.2563C29.9549 41.1911 29.8365 41.1392 29.7212 41.0929L25.9773 39.5908V38.2817C26.7649 37.8764 27.4609 37.318 28.0245 36.6442C28.3234 36.6874 28.6209 36.7093 28.9151 36.7093C30.7681 36.7093 32.493 35.8681 33.6571 34.3589C35.018 32.5945 35.3012 30.3206 34.4146 28.2762L32.8252 24.6112ZM24.5129 40.0861C24.5129 40.9854 23.7812 41.717 22.8818 41.717C21.9825 41.717 21.2508 40.9854 21.2508 40.0861V38.7756C21.802 38.926 22.3813 39.0078 22.9795 39.0078C23.5075 39.0078 24.0205 38.9435 24.5129 38.8254V40.0861ZM22.9795 37.5433C20.1607 37.5433 17.8675 35.2501 17.8675 32.4314V27.3601C17.8675 26.0534 18.2906 24.7705 19.0636 23.7203L19.1422 23.7842C20.4879 24.879 22.1842 25.507 23.9185 25.5528L28.0612 25.662C28.0783 25.6625 28.0916 25.6761 28.0916 25.693V32.4314C28.0914 35.2501 25.7982 37.5433 22.9795 37.5433V37.5433Z" fill="#6B61A9"/>
<path d="M31.7531 43.3288C31.423 43.5624 31.3448 44.0195 31.5785 44.3494C32.2304 45.2704 32.575 46.3523 32.575 47.4782V49.2677C32.575 49.6722 32.9027 50 33.3072 50C33.7117 50 34.0394 49.6722 34.0394 49.2677V47.4782C34.0394 46.0475 33.6018 44.673 32.7737 43.5034C32.5401 43.1732 32.0831 43.0951 31.7531 43.3288V43.3288Z" fill="#6B61A9"/>
<path d="M9.13895 10.9659C7.50783 9.85138 5.46753 9.64275 3.54088 10.3944C2.13547 10.9425 1.01184 12.059 0.457681 13.4575C0.0971286 14.3677 -0.0516615 15.2985 0.0158016 16.2242C0.0452863 16.6275 0.394806 16.9309 0.799292 16.9013C1.20261 16.872 1.50575 16.5212 1.47646 16.1179C1.42521 15.414 1.54051 14.7004 1.81925 13.997C2.22403 12.9754 3.04559 12.1597 4.07316 11.7588C5.54193 11.1859 7.08733 11.3376 8.3128 12.1751C9.51054 12.9935 10.2255 14.3467 10.2255 15.795C10.2255 16.7039 9.94968 17.5754 9.42794 18.3155C9.42189 18.3241 9.41603 18.3329 9.41027 18.3417L6.95006 22.1718C6.8743 22.2899 6.83398 22.4272 6.83398 22.5676V22.9011H6.57711V19.2353C7.32086 19.1685 7.90587 18.5425 7.90587 17.7817V16.5801C7.90587 15.775 7.25076 15.1199 6.4456 15.1199H5.24405C4.43889 15.1199 3.78378 15.775 3.78378 16.5801V17.7817C3.78378 18.5424 4.36889 19.1685 5.11254 19.2353V22.9012H4.85568V22.5677C4.85568 22.4273 4.81535 22.29 4.73959 22.1719L2.50071 18.6863C2.28221 18.3461 1.8292 18.2475 1.48886 18.466C1.14871 18.6845 1.05001 19.1376 1.26851 19.4778L3.39121 22.7826V23.3071C3.39121 23.5166 3.4531 23.7114 3.55845 23.8759V24.6341C3.55845 25.8121 4.5168 26.7705 5.69491 26.7705H5.99464C7.17266 26.7705 8.13111 25.8122 8.13111 24.6341V23.8759C8.23645 23.7114 8.29835 23.5166 8.29835 23.3071V22.7826L10.6342 19.1461C11.3248 18.1606 11.6899 17.0022 11.6899 15.7951C11.6899 13.8627 10.7363 12.0575 9.13895 10.9659V10.9659ZM6.4413 16.5801L6.44599 17.7775L5.88373 17.7794C5.87075 17.7788 5.85786 17.7775 5.84468 17.7775C5.82955 17.7775 5.81471 17.7789 5.79987 17.7797L5.24815 17.7817L5.24395 16.5843L6.4413 16.5801ZM6.66664 24.634C6.66664 25.0046 6.36515 25.3059 5.99464 25.3059H5.69491C5.3244 25.3059 5.02292 25.0046 5.02292 24.634V24.3656H6.66664V24.634Z" fill="#6B61A9"/>
<path d="M22.8828 13.0013C26.4673 13.0013 29.3834 10.0851 29.3834 6.50058C29.3834 2.91615 26.4673 0 22.8828 0C19.2982 0 16.3821 2.91615 16.3821 6.50058C16.3821 10.0851 19.2982 13.0013 22.8828 13.0013ZM22.8828 1.46447C25.6597 1.46447 27.919 3.72366 27.919 6.50058C27.919 9.27751 25.6597 11.5368 22.8828 11.5368C20.1058 11.5368 17.8465 9.27751 17.8465 6.50058C17.8465 3.72366 20.1058 1.46447 22.8828 1.46447Z" fill="#6B61A9"/>
<path d="M21.5944 8.94409C21.7373 9.08702 21.9248 9.15849 22.1121 9.15849C22.2995 9.15849 22.4869 9.08702 22.6299 8.94409L26.0507 5.52329C26.3367 5.23723 26.3367 4.77368 26.0507 4.48771C25.7647 4.20185 25.3011 4.20185 25.0152 4.48771L22.1122 7.39078L21.6196 6.89823C21.3337 6.61236 20.87 6.61227 20.5841 6.89833C20.2981 7.18429 20.2981 7.64794 20.5842 7.9338L21.5944 8.94409Z" fill="#6B61A9"/>
<path d="M45.912 14.5641C45.7767 14.1474 45.4233 13.8495 44.9897 13.7864L41.9467 13.3442L40.5858 10.5866C40.3919 10.1939 39.9993 9.94989 39.5613 9.94989C39.1235 9.94989 38.7309 10.1939 38.537 10.5866L37.176 13.3442L34.1328 13.7864C33.6994 13.8495 33.3459 14.1474 33.2107 14.564C33.0754 14.9806 33.1862 15.4292 33.4998 15.7349L35.7019 17.8814L35.182 20.9123C35.1081 21.344 35.2823 21.7722 35.6366 22.0295C35.9909 22.2871 36.4518 22.3204 36.8396 22.1165L39.5614 20.6855L42.2834 22.1165C42.452 22.2052 42.6345 22.2489 42.816 22.2489C43.0518 22.2489 43.2862 22.1749 43.4865 22.0294C43.8408 21.7719 44.0149 21.3438 43.9408 20.9122L43.421 17.8815L45.6229 15.735C45.9365 15.4293 46.0474 14.9806 45.912 14.5641ZM42.2774 16.9507C42.0082 17.2132 41.8853 17.5912 41.9488 17.962L42.3869 20.5165L40.0929 19.3105C39.9265 19.223 39.7439 19.1792 39.5613 19.1792C39.3788 19.1792 39.1961 19.2229 39.0296 19.3104L36.7356 20.5165L37.1738 17.9618C37.2372 17.5911 37.1144 17.2131 36.8452 16.9508L34.9893 15.1418L37.5543 14.7692C37.9265 14.7149 38.248 14.4812 38.4142 14.1442L39.5612 11.82L40.7081 14.1438C40.8744 14.4812 41.196 14.7149 41.5684 14.7691L44.1332 15.1417L42.2774 16.9507Z" fill="#6B61A9"/>
<path d="M30.647 9.39254C31.7644 9.82836 32.847 10.3622 33.8783 10.9821C33.5559 11.1335 33.3834 11.5011 33.4881 11.8528C33.5828 12.1706 33.8741 12.3761 34.1896 12.3761C34.2588 12.3761 34.3292 12.3662 34.399 12.3455L35.7862 11.9323C36.0965 11.84 36.3093 11.5545 36.3093 11.2305V9.73015C36.3093 9.32566 35.9815 8.99791 35.577 8.99791C35.1726 8.99791 34.8448 9.32566 34.8448 9.73015V9.85668C33.6795 9.13879 32.4505 8.52411 31.1792 8.02814C30.8024 7.88111 30.3779 8.06739 30.2309 8.44425C30.084 8.821 30.2702 9.24551 30.647 9.39254Z" fill="#6B61A9"/>
<path d="M11.3281 11.196C11.4588 11.196 11.5912 11.161 11.7107 11.0876C12.3943 10.6676 13.1062 10.2847 13.8336 9.94395L13.7955 10.0865C13.6911 10.4771 13.9231 10.8785 14.3139 10.983C14.3771 10.9999 14.4408 11.008 14.5034 11.008C14.8267 11.008 15.1228 10.792 15.2103 10.4647L15.6575 8.79151C15.757 8.41924 15.5509 8.03341 15.186 7.90932L13.8442 7.4526C13.4616 7.32197 13.0453 7.52689 12.9151 7.9099C12.8209 8.18659 12.9023 8.47997 13.0989 8.67094C12.361 9.02153 11.639 9.41303 10.9442 9.83988C10.5997 10.0516 10.4919 10.5025 10.7036 10.847C10.8418 11.072 11.0821 11.196 11.3281 11.196V11.196Z" fill="#6B61A9"/>
</svg>
