<svg width="50" height="50" viewBox="0 0 50 50" fill="none" xmlns="http://www.w3.org/2000/svg">
<g clip-path="url(#clip0_4_1313)">
<path d="M29.9482 45.7599C30.2376 45.4705 30.2376 45.0013 29.9482 44.7119C29.6588 44.4225 29.1896 44.4225 28.9001 44.7119C28.6107 45.0013 28.6107 45.4705 28.9001 45.7599C29.1896 46.0493 29.6588 46.0493 29.9482 45.7599Z" fill="#6B61A9"/>
<path d="M34.1936 45.7604C34.483 45.471 34.483 45.0018 34.1936 44.7124C33.9042 44.423 33.4349 44.423 33.1455 44.7124C32.8561 45.0018 32.8561 45.471 33.1455 45.7604C33.4349 46.0498 33.9042 46.0498 34.1936 45.7604Z" fill="#6B61A9"/>
<path d="M29.9478 49.7807C30.2372 49.4913 30.2372 49.0221 29.9478 48.7327C29.6584 48.4433 29.1892 48.4433 28.8998 48.7327C28.6104 49.0221 28.6104 49.4913 28.8998 49.7807C29.1892 50.0701 29.6584 50.0701 29.9478 49.7807Z" fill="#6B61A9"/>
<path d="M34.1932 49.7812C34.4826 49.4917 34.4826 49.0225 34.1932 48.7331C33.9038 48.4437 33.4346 48.4437 33.1452 48.7331C32.8558 49.0225 32.8558 49.4917 33.1452 49.7812C33.4346 50.0706 33.9038 50.0706 34.1932 49.7812Z" fill="#6B61A9"/>
<path d="M48.4631 49.189C48.4631 49.189 47.461 38.9275 47.407 38.68C46.8675 36.1566 44.7979 34.1967 42.2214 33.737L36.6653 32.5037C36.6221 31.9851 36.429 31.4856 36.0974 31.0654L35.6166 30.4557H36.0863C38.4444 30.4557 40.3629 28.5373 40.3629 26.1791L40.3627 8.52041C41.4653 7.35879 42.9716 5.95415 42.8822 4.16335C42.8822 1.86765 41.0145 0 38.7189 0H26.6854C23.0255 0 19.3801 0.902775 16.1431 2.61068L12.3684 4.60243C10.4131 5.63419 9.19833 7.64859 9.19833 9.85954C9.19833 13.137 11.8648 15.8034 15.1422 15.8034H16.8524V26.1791C16.8524 28.5372 18.7708 30.4557 21.129 30.4557H21.5986L21.1178 31.0654C20.7862 31.4857 20.5932 31.9852 20.55 32.5037L14.6677 33.8094C12.8091 34.2043 11.0883 35.5623 10.2729 37.3172C6.36826 38.3543 3.43302 41.795 3.15396 45.952C2.22912 46.1463 1.53256 46.968 1.53256 47.9497C1.53256 49.0754 2.44842 49.9914 3.5743 49.9914H21.8995C23.0253 49.9914 23.9412 49.0754 23.9412 47.9497C23.9412 46.9679 23.2446 46.1463 22.3198 45.952C21.9845 40.9574 17.8149 36.9964 12.7369 36.9964C12.548 36.9964 12.3604 37.0024 12.1741 37.0133C12.9475 35.9548 14.3684 35.283 15.7146 35.0774L20.8297 33.9419C21.0887 34.4561 21.5074 34.8769 22.0368 35.1386L27.3682 37.7749L25.3476 39.7954C25.2435 39.9075 25.1291 40.0802 25.1331 40.3135V49.2592C25.1331 49.6636 25.461 49.9915 25.8654 49.9915C26.2698 49.9915 26.5977 49.6636 26.5977 49.2592V40.6166L28.6077 38.6065L30.8322 40.8311C30.9752 40.974 31.1626 41.0456 31.35 41.0456C31.5374 41.0456 31.7248 40.9741 31.8678 40.8311C32.1538 40.5451 32.1538 40.0814 31.8678 39.7955L29.8472 37.7749L35.1786 35.1387C35.7079 34.877 36.1267 34.4562 36.3857 33.942L41.3381 35.0413C43.4391 35.286 45.4454 36.6935 45.9431 38.8546C46.0015 39.0898 47.0049 49.3294 47.0049 49.3294C47.0413 49.7082 47.3601 49.9917 47.733 49.9917H47.7331H47.7332C47.7567 49.9917 47.7803 49.9906 47.8042 49.9883C48.2068 49.9493 48.5017 49.5916 48.4631 49.189V49.189ZM36.0864 28.9911H34.4615L33.0861 27.2473C35.8749 25.683 37.6575 22.7612 37.7447 19.5318H38.8985V26.1791C38.8985 27.7296 37.637 28.9911 36.0864 28.9911ZM25.9945 31.8528V27.0025C25.9959 26.7261 25.832 26.4335 25.5471 26.3186C22.8116 25.1314 21.0215 22.4756 20.9351 19.5085C23.8292 19.3314 26.6092 18.1131 29.0165 15.9563C29.8882 15.1753 30.5736 14.3967 31.0698 13.7667C31.2485 14.3537 31.4979 15.0418 31.8381 15.734C32.9183 17.9313 34.444 19.2117 36.2811 19.4786C36.2059 22.4573 34.4132 25.1269 31.6686 26.3186C31.6683 26.3187 31.668 26.3189 31.6677 26.319C31.666 26.3198 31.6642 26.3207 31.6624 26.3215C31.6623 26.3215 31.6622 26.3215 31.6622 26.3216C31.1342 26.5506 30.5794 26.7195 30.013 26.8237C29.6152 26.8969 29.3521 27.2786 29.4253 27.6764C29.4757 27.9535 29.8309 28.3452 30.278 28.2641C30.5961 28.2056 30.9111 28.1292 31.2212 28.0371V31.8528L28.6077 33.9188L25.9945 31.8528ZM37.017 18.0672C34.0211 18.0672 32.7421 14.4417 32.3092 12.7546H38.8985V18.0672H37.017ZM18.3171 12.7546H29.9997C29.536 13.3541 28.8672 14.1283 28.0048 14.8964C25.6418 17.0004 23.0154 18.0673 20.1987 18.0673H18.3172V12.7546H18.3171ZM15.1423 14.3388C12.6724 14.3388 10.663 12.3294 10.663 9.85944C10.663 8.19332 11.5784 6.67522 13.052 5.89772L16.8267 3.90597C19.8537 2.30878 23.2628 1.46459 26.6854 1.46459H38.7189C40.207 1.46459 41.4176 2.67522 41.4176 4.16335C41.5331 5.44037 40.0164 6.69406 39.2938 7.51912L35.4118 7.73168C35.008 7.75384 34.6985 8.0991 34.7206 8.50293C34.7427 8.90677 35.0882 9.21697 35.4919 9.19412L38.8981 9.00763V11.2899H20.5059L21.6111 10.6985C22.625 10.156 23.7678 9.836 24.916 9.77312L32.0666 9.38169C32.4704 9.35952 32.7798 9.01427 32.7578 8.61043C32.7357 8.2066 32.3916 7.89659 31.9865 7.91924L24.836 8.31068C23.4756 8.38518 22.1216 8.76431 20.9202 9.40707L18.3173 10.7998V6.71672C18.3173 6.31229 17.9894 5.98442 17.585 5.98442C17.1806 5.98442 16.8527 6.31229 16.8527 6.71672L16.8525 14.3388H15.1423ZM21.1291 28.9911C19.5786 28.9911 18.3171 27.7297 18.3171 26.1791V19.5318H19.4709C19.558 22.7616 21.3406 25.6834 24.1293 27.2474L22.7539 28.9911H21.1291ZM20.846 45.9079H10.4404C10.036 45.9079 9.70811 46.2358 9.70811 46.6402C9.70811 47.0446 10.036 47.3725 10.4404 47.3725H21.8995C22.2177 47.3725 22.4766 47.6314 22.4766 47.9497C22.4766 48.268 22.2177 48.5268 21.8995 48.5268H3.5743C3.25609 48.5268 2.99715 48.2679 2.99715 47.9497C2.99715 47.6315 3.256 47.3725 3.5743 47.3725H6.99344C7.39786 47.3725 7.72574 47.0446 7.72574 46.6402C7.72574 46.2358 7.39786 45.9079 6.99344 45.9079H4.62773C4.98109 41.7428 8.48186 38.4609 12.7369 38.4609C16.9919 38.4609 20.4926 41.7428 20.846 45.9079ZM22.0351 32.9986C21.9536 32.6373 22.0384 32.2632 22.2678 31.9723L24.5297 29.1047V32.2075C24.5297 32.4315 24.6322 32.6431 24.8079 32.7821L27.8754 35.2073V36.3918L22.6859 33.8256C22.3538 33.6614 22.1166 33.3601 22.0351 32.9986ZM34.5295 33.8256L29.34 36.3918V35.2068L32.4075 32.7821C32.5832 32.6432 32.6857 32.4315 32.6857 32.2075V29.1047L34.9475 31.9724C35.177 32.2633 35.2618 32.6374 35.1803 32.9987C35.0988 33.3601 34.8617 33.6614 34.5295 33.8256V33.8256Z" fill="#6B61A9"/>
<path d="M41.5 38.6961C41.0956 38.6961 40.7677 39.024 40.7677 39.4284V49.2591C40.7677 49.6636 41.0956 49.9914 41.5 49.9914C41.9044 49.9914 42.2323 49.6636 42.2323 49.2591V39.4284C42.2323 39.024 41.9044 38.6961 41.5 38.6961V38.6961Z" fill="#6B61A9"/>
<path d="M28.5765 21.104C28.981 21.104 29.3088 20.7761 29.3088 20.3717V18.9333C29.3088 18.5289 28.981 18.201 28.5765 18.201C28.1721 18.201 27.8442 18.5289 27.8442 18.9333V20.3717C27.8442 20.7761 28.172 21.104 28.5765 21.104Z" fill="#6B61A9"/>
<path d="M30.2088 23.9C30.5317 23.6565 30.596 23.1973 30.3525 22.8744C30.109 22.5515 29.6498 22.487 29.3269 22.7307C29.095 22.9055 28.8181 22.998 28.5259 22.998C28.2344 22.998 27.9571 22.9053 27.7241 22.7301C27.4009 22.487 26.9417 22.552 26.6987 22.8752C26.4555 23.1984 26.5206 23.6574 26.8438 23.9006C27.3326 24.2683 27.9143 24.4626 28.5259 24.4626C29.1389 24.4626 29.7208 24.268 30.2088 23.9V23.9Z" fill="#6B61A9"/>
</g>
<defs>
<clipPath id="clip0_4_1313">
<rect width="50" height="50" fill="white"/>
</clipPath>
</defs>
</svg>
