<svg width="50" height="50" viewBox="0 0 50 50" fill="none" xmlns="http://www.w3.org/2000/svg">
<path d="M49.2665 41.1706H48.0523V15.3178C48.0523 12.6752 45.9023 10.5251 43.2595 10.5251H41.3611C40.9559 10.5251 40.6276 10.8535 40.6276 11.2586C40.6276 11.6638 40.9559 11.9921 41.3611 11.9921H43.2595C45.0934 11.9921 46.5853 13.4841 46.5853 15.3178V41.1706H30.1887C29.6882 41.1706 29.2212 41.4175 28.9397 41.8313L28.7198 42.1546C28.5154 42.4549 28.1765 42.6342 27.8132 42.6342H22.0888C21.7256 42.6342 21.3866 42.4549 21.1822 42.1546L20.9623 41.8313C20.6807 41.4176 20.2138 41.1706 19.7133 41.1706H3.41479V15.3178C3.41479 13.4841 4.90673 11.9921 6.74058 11.9921H18.6724C19.0775 11.9921 19.4059 11.6638 19.4059 11.2586C19.4059 10.8535 19.0775 10.5251 18.6724 10.5251H6.74048C4.09773 10.5251 1.94769 12.6751 1.94769 15.3178V41.1706H0.733501C0.328413 41.1706 0 41.4989 0 41.9041V43.4313C0 46.1922 2.24627 48.4385 5.00727 48.4385H44.9926C47.7536 48.4385 49.9999 46.1922 49.9999 43.4313V41.9041C50 41.4989 49.6716 41.1706 49.2665 41.1706V41.1706ZM48.533 43.4313C48.533 45.3833 46.9448 46.9715 44.9927 46.9715H5.00727C3.05518 46.9715 1.467 45.3833 1.467 43.4313V42.6376H19.7135C19.7279 42.6376 19.7415 42.6447 19.7497 42.6567L19.9696 42.9799C20.4474 43.682 21.2396 44.1012 22.0889 44.1012H27.8133C28.6626 44.1012 29.4547 43.682 29.9326 42.9799L30.1525 42.6567L30.1526 42.6566C30.1608 42.6446 30.1743 42.6376 30.1887 42.6376H48.5329V43.4313H48.533Z" fill="#6B61A9"/>
<path d="M27.412 11.2586C27.412 11.6638 27.7403 11.9921 28.1455 11.9921H30.9042C31.3094 11.9921 31.6377 11.6638 31.6377 11.2586C31.6377 10.8535 31.3094 10.5251 30.9042 10.5251H28.1455C27.7403 10.5251 27.412 10.8535 27.412 11.2586Z" fill="#6B61A9"/>
<path d="M30.9042 15.1217C31.3094 15.1217 31.6377 14.7933 31.6377 14.3882C31.6377 13.983 31.3094 13.6547 30.9042 13.6547H28.1455C27.7403 13.6547 27.412 13.983 27.412 14.3882C27.412 14.7933 27.7403 15.1217 28.1455 15.1217H30.9042Z" fill="#6B61A9"/>
<path d="M33.8381 25.1506C33.4329 25.1506 33.1046 25.4789 33.1046 25.8841V38.041H31.3712V19.7465C31.3712 18.8574 30.6478 18.1341 29.7586 18.1341H26.9275C26.0383 18.1341 25.315 18.8574 25.315 19.7465V38.041H23.5817V23.8255C23.5817 22.9364 22.8584 22.2131 21.9692 22.2131H19.1379C18.2488 22.2131 17.5255 22.9364 17.5255 23.8255V38.041H15.7921V26.9865C15.7921 26.0973 15.0688 25.374 14.1797 25.374H11.3485C10.4594 25.374 9.73593 26.0973 9.73593 26.9865V30.9302C9.73593 31.3354 10.0643 31.6637 10.4694 31.6637C10.8745 31.6637 11.2029 31.3354 11.2029 30.9302V26.9865C11.2029 26.9063 11.2682 26.841 11.3485 26.841H14.1797C14.2599 26.841 14.3251 26.9063 14.3251 26.9865V38.0409H11.2029V34.0587C11.2029 33.6535 10.8745 33.3252 10.4694 33.3252C10.0643 33.3252 9.73593 33.6535 9.73593 34.0587V38.0409H6.54452V15.3179C6.54452 15.2097 6.63244 15.1217 6.7406 15.1217H18.6725C19.0776 15.1217 19.406 14.7934 19.406 14.3882C19.406 13.983 19.0776 13.6547 18.6725 13.6547H6.7406C5.82353 13.6547 5.07751 14.4008 5.07751 15.3179V38.7745C5.07751 39.1797 5.40593 39.508 5.81102 39.508H44.1893C44.5945 39.508 44.9228 39.1797 44.9228 38.7745V15.3179C44.9228 14.4008 44.1767 13.6547 43.2596 13.6547H41.3612C40.9561 13.6547 40.6277 13.983 40.6277 14.3882C40.6277 14.7934 40.9561 15.1217 41.3612 15.1217H43.2596C43.3678 15.1217 43.4558 15.2096 43.4558 15.3179V38.041H39.1607V10.7213C39.1607 9.83216 38.4374 9.10883 37.5483 9.10883H34.7171C33.828 9.10883 33.1047 9.83216 33.1047 10.7213V22.7556C33.1047 23.1607 33.433 23.4891 33.8382 23.4891C34.2434 23.4891 34.5717 23.1607 34.5717 22.7556V10.7213C34.5717 10.6411 34.6369 10.5758 34.7171 10.5758H37.5483C37.6285 10.5758 37.6937 10.6411 37.6937 10.7213V38.041H34.5716V25.8841C34.5716 25.4789 34.2432 25.1506 33.8381 25.1506ZM18.9924 38.041V23.8255C18.9924 23.7453 19.0576 23.6801 19.1378 23.6801H21.9691C22.0493 23.6801 22.1146 23.7453 22.1146 23.8255V38.041H18.9924ZM26.7819 38.041V19.7465C26.7819 19.6663 26.8472 19.6011 26.9274 19.6011H29.7585C29.8387 19.6011 29.9041 19.6663 29.9041 19.7465V38.041H26.7819Z" fill="#6B61A9"/>
<path d="M19.5711 7.99252H20.873V9.67409C20.873 10.0793 21.2015 10.4076 21.6065 10.4076C22.0116 10.4076 22.34 10.0793 22.34 9.67409V7.54263C22.34 6.98185 21.8837 6.52561 21.3229 6.52561H20.5611L23.4089 3.26281L26.2567 6.52561H25.495C24.9342 6.52561 24.478 6.98185 24.478 7.54263V15.9176H22.3401V12.8027C22.3401 12.3975 22.0117 12.0692 21.6066 12.0692C21.2016 12.0692 20.8731 12.3975 20.8731 12.8027V16.1523C20.8731 16.8318 21.426 17.3846 22.1055 17.3846H24.7126C25.3921 17.3846 25.9451 16.8319 25.9451 16.1523V7.99252H27.2469C27.6448 7.99252 28.0083 7.75838 28.1729 7.39613C28.3375 7.03388 28.2748 6.6061 28.0131 6.30664L24.1754 1.90964C23.9822 1.68822 23.7029 1.56128 23.4091 1.56128C23.1153 1.56128 22.836 1.68822 22.6428 1.90964L18.8052 6.30654C18.5434 6.6061 18.4808 7.03398 18.6454 7.39613C18.8098 7.75848 19.1732 7.99252 19.5711 7.99252V7.99252Z" fill="#6B61A9"/>
</svg>
