<svg width="50" height="50" viewBox="0 0 50 50" fill="none" xmlns="http://www.w3.org/2000/svg">
<g clip-path="url(#clip0_4_1383)">
<path d="M14.8045 40.2065C14.4554 40.0008 14.0053 40.1166 13.7994 40.4657C12.9595 41.8895 12.5154 43.5151 12.5154 45.1668V49.0809C12.5154 49.4863 12.844 49.8148 13.2493 49.8148C13.6547 49.8148 13.9833 49.4863 13.9833 49.0809V45.1668C13.9833 43.7773 14.3568 42.4095 15.0636 41.2115C15.2697 40.8624 15.1536 40.4125 14.8045 40.2065V40.2065Z" fill="#6B61A9"/>
<path d="M32.5299 37.0252L30.7542 36.0664C31.8094 35.227 32.7351 34.2157 33.4766 33.0896L33.5681 33.141C33.9116 33.3346 34.3464 33.2223 34.5531 32.8866L35.4113 31.4942C37.5029 28.1001 38.3009 24.0612 37.6586 20.1211C37.5933 19.7211 37.2163 19.4496 36.8161 19.5149C36.4161 19.5802 36.1446 19.9573 36.2099 20.3574C36.7955 23.949 36.0681 27.6306 34.1617 30.7241L33.6738 31.5158L33.5832 31.4648C33.2326 31.2674 32.7888 31.3889 32.5876 31.7369C31.7785 33.1364 30.6534 34.3668 29.3326 35.2986L28.202 34.6882V33.8448C30.9566 32.6148 32.8823 29.8513 32.8823 26.6448V19.2715C32.8823 18.7288 32.5793 18.2439 32.0916 18.0059C31.6039 17.7677 31.0352 17.8276 30.6075 18.1615L29.4847 19.0381C28.5141 19.7958 27.3788 20.3215 26.1824 20.5809L28.032 18.3592C28.2914 18.0476 28.2491 17.5849 27.9376 17.3256C27.6261 17.0663 27.1632 17.1086 26.904 17.42L24.1176 20.7668H21.4651L23.4278 18.3526C23.6835 18.038 23.6358 17.5758 23.3213 17.3201C23.0069 17.0644 22.5445 17.1121 22.2889 17.4266L19.5734 20.7668H18.1955C17.6012 20.7668 17.1177 21.2502 17.1177 21.8446V26.6448C17.1177 29.8133 18.9977 32.5492 21.7001 33.8005V34.6882L20.5696 35.2986C19.2486 34.3667 18.1237 33.1364 17.3146 31.7369C17.1133 31.3886 16.6694 31.2673 16.3189 31.4648L16.2283 31.5158L15.7404 30.7241C12.5713 25.5818 12.7637 19.0631 16.2303 14.1166C18.2513 11.233 21.4298 9.57921 24.9511 9.57921C28.4723 9.57921 31.6509 11.233 33.6718 14.1166C34.3778 15.1239 34.9607 16.2212 35.4047 17.3781C35.5499 17.7565 35.9745 17.9453 36.3529 17.8003C36.7313 17.6552 36.9203 17.2307 36.7751 16.8523C36.2883 15.5834 35.6487 14.3796 34.8739 13.2742C32.5744 9.99315 28.9577 8.11133 24.9512 8.11133C20.9446 8.11133 17.3279 9.99305 15.0284 13.2742C11.2251 18.7009 11.0141 25.8527 14.4908 31.4943L15.349 32.8867C15.5556 33.2223 15.9905 33.3347 16.334 33.1411L16.4255 33.0897C17.167 34.2158 18.0927 35.2271 19.148 36.0664L17.3723 37.0252C16.911 37.2743 16.4683 37.5645 16.0562 37.8876C15.7373 38.1378 15.6815 38.5991 15.9317 38.918C16.0764 39.1026 16.292 39.199 16.5097 39.199C16.6682 39.199 16.8278 39.148 16.9622 39.0425C17.3088 38.7705 17.6815 38.5264 18.0697 38.3168L21.7155 36.3483C21.8723 37.9957 23.2634 39.2887 24.9513 39.2887C26.6392 39.2887 28.0304 37.9957 28.1872 36.3483L31.833 38.3168C34.3534 39.6776 35.9191 42.3025 35.9191 45.1667V49.0808C35.9191 49.4863 36.2477 49.8148 36.653 49.8148C37.0583 49.8148 37.3869 49.4863 37.3869 49.0808V45.1667C37.3864 41.7624 35.5256 38.6427 32.5299 37.0252V37.0252ZM18.5853 26.645V22.235H24.4615C26.5985 22.235 28.7032 21.5107 30.3879 20.1955L31.4143 19.3941V26.6451C31.4143 30.1821 28.5368 33.0596 24.9999 33.0596C21.463 33.0596 18.5853 30.1819 18.5853 26.645V26.645ZM24.951 37.821C23.9678 37.821 23.1678 37.0211 23.1678 36.0379V34.3101C23.7561 34.4508 24.3691 34.5274 24.9999 34.5274C25.5958 34.5274 26.1757 34.4587 26.7341 34.3328V36.0379C26.734 37.0211 25.9341 37.821 24.951 37.821V37.821Z" fill="#6B61A9"/>
<path d="M36.6531 13.474C36.8269 13.474 37.0014 13.4126 37.1413 13.2878L39.9783 10.7586C41.0423 11.6943 42.436 12.2636 43.961 12.2636C47.291 12.2636 50.0003 9.55443 50.0003 6.22439C50.0003 2.89446 47.291 0.185242 43.961 0.185242C40.631 0.185242 37.9219 2.89446 37.9219 6.22439C37.9219 7.50164 38.3215 8.68681 39.0009 9.66354L36.1645 12.1923C35.8619 12.462 35.8354 12.9259 36.1051 13.2285C36.25 13.3911 36.4511 13.474 36.6531 13.474V13.474ZM43.961 1.65312C46.4817 1.65312 48.5324 3.70375 48.5324 6.22439C48.5324 8.74504 46.4817 10.7958 43.961 10.7958C41.4404 10.7958 39.3897 8.74504 39.3897 6.22439C39.3897 3.70375 41.4404 1.65312 43.961 1.65312V1.65312Z" fill="#6B61A9"/>
<path d="M43.961 33.2314C42.436 33.2314 41.0423 33.8008 39.9783 34.7365L37.1413 32.2072C36.8389 31.9374 36.3749 31.9642 36.1051 32.2665C35.8354 32.5691 35.8619 33.0331 36.1645 33.3028L39.0009 35.8315C38.3215 36.8083 37.9219 37.9933 37.9219 39.2707C37.9219 42.6007 40.6311 45.3099 43.961 45.3099C47.291 45.3099 50.0003 42.6007 50.0003 39.2707C50.0003 35.9406 47.291 33.2314 43.961 33.2314ZM43.961 43.842C41.4404 43.842 39.3897 41.7913 39.3897 39.2707C39.3897 36.75 41.4405 34.6993 43.961 34.6993C46.4817 34.6993 48.5324 36.75 48.5324 39.2707C48.5324 41.7913 46.4817 43.842 43.961 43.842Z" fill="#6B61A9"/>
<path d="M44.8229 19.0484C43.0344 19.0484 41.5384 20.3244 41.197 22.0137H40.2804C39.8751 22.0137 39.5465 22.3422 39.5465 22.7477C39.5465 23.1531 39.8751 23.4816 40.2804 23.4816H41.197C41.5384 25.1709 43.0344 26.4468 44.8229 26.4468C46.8626 26.4468 48.522 24.7874 48.522 22.7477C48.522 20.7079 46.8625 19.0484 44.8229 19.0484V19.0484ZM44.8229 24.9788C43.5925 24.9788 42.5915 23.9778 42.5915 22.7476C42.5915 21.5172 43.5925 20.5162 44.8229 20.5162C46.0532 20.5162 47.0541 21.5172 47.0541 22.7476C47.0541 23.9779 46.0531 24.9788 44.8229 24.9788Z" fill="#6B61A9"/>
<path d="M6.03925 12.2636C7.56428 12.2636 8.95798 11.6943 10.022 10.7586L12.8589 13.2878C12.9989 13.4126 13.1732 13.474 13.3471 13.474C13.549 13.474 13.7502 13.391 13.8952 13.2284C14.1649 12.9259 14.1384 12.4619 13.8358 12.1922L10.9995 9.66354C11.6787 8.68681 12.0785 7.50174 12.0785 6.22449C12.0785 5.42156 11.9227 4.64065 11.6155 3.90338C11.4596 3.52927 11.0298 3.35244 10.6557 3.50823C10.2815 3.66412 10.1047 4.09381 10.2606 4.46803C10.4929 5.02543 10.6106 5.6164 10.6106 6.22449C10.6106 8.74513 8.55989 10.7958 6.03935 10.7958C3.51861 10.7958 1.46788 8.74513 1.46788 6.22449C1.46788 3.70375 3.51861 1.65302 6.03925 1.65302C6.91323 1.65302 7.76372 1.90168 8.49854 2.37209C8.83996 2.59071 9.29383 2.49109 9.51235 2.14966C9.73087 1.80833 9.63125 1.35436 9.28992 1.13594C8.31828 0.514047 7.19418 0.185242 6.03925 0.185242C2.70922 0.185144 0 2.89446 0 6.22449C0 9.55443 2.70922 12.2636 6.03925 12.2636V12.2636Z" fill="#6B61A9"/>
<path d="M13.8357 33.3029C14.1383 33.0332 14.1648 32.5692 13.8951 32.2667C13.6254 31.9641 13.1615 31.9375 12.8589 32.2074L10.022 34.7366C8.95798 33.8009 7.56428 33.2315 6.03925 33.2315C2.70922 33.2314 0 35.9407 0 39.2707C0 42.6007 2.70922 45.3099 6.03925 45.3099C9.36928 45.3099 12.0784 42.6007 12.0784 39.2707C12.0784 37.9934 11.6787 36.8083 10.9994 35.8315L13.8357 33.3029ZM6.03925 43.8421C3.51861 43.8421 1.46788 41.7913 1.46788 39.2707C1.46788 36.75 3.51861 34.6993 6.03925 34.6993C8.55989 34.6993 10.6105 36.75 10.6105 39.2707C10.6105 41.7913 8.55989 43.8421 6.03925 43.8421V43.8421Z" fill="#6B61A9"/>
<path d="M8.80316 22.0137C8.46173 20.3244 6.96577 19.0484 5.1773 19.0484C3.13754 19.0484 1.47815 20.7079 1.47815 22.7477C1.47815 24.7874 3.13764 26.4468 5.1773 26.4468C6.96577 26.4468 8.46173 25.1709 8.80316 23.4816H9.71971C10.125 23.4816 10.4536 23.1531 10.4536 22.7477C10.4536 22.3422 10.125 22.0137 9.71971 22.0137H8.80316ZM5.1773 24.9788C3.94693 24.9788 2.94603 23.9778 2.94603 22.7476C2.94603 21.5172 3.94703 20.5162 5.1773 20.5162C6.40758 20.5162 7.40868 21.5172 7.40868 22.7476C7.40858 23.9779 6.40758 24.9788 5.1773 24.9788Z" fill="#6B61A9"/>
</g>
<defs>
<clipPath id="clip0_4_1383">
<rect width="50" height="50" fill="white"/>
</clipPath>
</defs>
</svg>
