<svg width="49" height="50" viewBox="0 0 49 50" fill="none" xmlns="http://www.w3.org/2000/svg">
<g clip-path="url(#clip0_4_1407)">
<path d="M42.4794 3.37885H34.2863C33.8895 3.37885 33.5678 3.70749 33.5678 4.11287C33.5678 4.51825 33.8895 4.84689 34.2863 4.84689H42.4794C42.8812 4.84689 43.2083 5.18102 43.2083 5.59158V47.7873C43.2083 48.1978 42.8812 48.532 42.4794 48.532H6.4635C6.06161 48.532 5.73455 48.1978 5.73455 47.7873V41.4389C5.73455 41.0336 5.41285 40.7049 5.01605 40.7049C4.61924 40.7049 4.29755 41.0336 4.29755 41.4389V47.7873C4.29755 49.0074 5.26925 50 6.4635 50H42.4793C43.6735 50 44.6452 49.0074 44.6452 47.7873V5.59158C44.6452 4.37154 43.6736 3.37885 42.4794 3.37885V3.37885Z" fill="#6B61A9"/>
<path d="M5.01605 39.0422C5.41285 39.0422 5.73455 38.7136 5.73455 38.3082V5.59158C5.73455 5.18092 6.06152 4.84689 6.4635 4.84689H14.5607C14.9575 4.84689 15.2792 4.51825 15.2792 4.11287C15.2792 3.70749 14.9575 3.37885 14.5607 3.37885H6.4635C5.26915 3.37885 4.29755 4.37144 4.29755 5.59158V38.3082C4.29755 38.7136 4.61924 39.0422 5.01605 39.0422Z" fill="#6B61A9"/>
<path d="M18.7516 8.32578H24.3761C24.7729 8.32578 25.0946 7.99713 25.0946 7.59176C25.0946 7.18638 24.7729 6.85773 24.3761 6.85773H18.7516C18.4205 6.85773 18.1512 6.58252 18.1512 6.24438V4.2036C18.1512 3.86537 18.4206 3.59025 18.7516 3.59025H18.772C19.1688 3.59025 19.4905 3.26161 19.4905 2.85623V1.87616C19.4905 1.65106 19.6698 1.46805 19.89 1.46805H28.9577C29.178 1.46805 29.3572 1.65116 29.3572 1.87616V2.85623C29.3572 3.26161 29.6789 3.59025 30.0757 3.59025H30.0961C30.4272 3.59025 30.6965 3.86546 30.6965 4.2036V6.24438C30.6965 6.58262 30.4271 6.85773 30.0961 6.85773H27.4406C27.0438 6.85773 26.7221 7.18638 26.7221 7.59176C26.7221 7.99713 27.0438 8.32578 27.4406 8.32578H30.0961C31.2196 8.32578 32.1335 7.39201 32.1335 6.24438V4.2036C32.1335 3.30633 31.5748 2.53982 30.7942 2.24807V1.87616C30.7942 0.841582 29.9703 0 28.9577 0H19.89C18.8774 0 18.0535 0.84168 18.0535 1.87616V2.24807C17.2729 2.53982 16.7142 3.30633 16.7142 4.2036V6.24438C16.7142 7.3921 17.6283 8.32578 18.7516 8.32578Z" fill="#6B61A9"/>
<path d="M28.1089 4.89772C28.1089 4.49234 27.7872 4.1637 27.3904 4.1637H21.6894C21.2926 4.1637 20.9709 4.49234 20.9709 4.89772C20.9709 5.3031 21.2926 5.63174 21.6894 5.63174H27.3904C27.7872 5.63174 28.1089 5.3031 28.1089 4.89772Z" fill="#6B61A9"/>
<path d="M11.4252 16.7407C11.4252 18.1957 12.5839 19.3795 14.0081 19.3795C15.4324 19.3795 16.5911 18.1957 16.5911 16.7407C16.5911 15.2857 15.4324 14.1019 14.0081 14.1019C12.5839 14.1019 11.4252 15.2857 11.4252 16.7407ZM15.1542 16.7407C15.1542 17.3862 14.6401 17.9114 14.0082 17.9114C13.3763 17.9114 12.8623 17.3862 12.8623 16.7407C12.8623 16.0951 13.3763 15.57 14.0082 15.57C14.6401 15.57 15.1542 16.0951 15.1542 16.7407Z" fill="#6B61A9"/>
<path d="M33.9027 14.1019C32.4784 14.1019 31.3197 15.2857 31.3197 16.7407C31.3197 18.1957 32.4784 19.3795 33.9027 19.3795C35.3269 19.3795 36.4856 18.1957 36.4856 16.7407C36.4856 15.2857 35.3269 14.1019 33.9027 14.1019ZM33.9027 17.9115C33.2708 17.9115 32.7567 17.3863 32.7567 16.7408C32.7567 16.0952 33.2708 15.5701 33.9027 15.5701C34.5346 15.5701 35.0486 16.0952 35.0486 16.7408C35.0486 17.3863 34.5346 17.9115 33.9027 17.9115Z" fill="#6B61A9"/>
<path d="M34.5836 40.7821C34.5836 42.1251 35.6531 43.2177 36.9677 43.2177C38.2823 43.2177 39.3518 42.1251 39.3518 40.7821C39.3518 39.4391 38.2823 38.3464 36.9677 38.3464C35.6531 38.3464 34.5836 39.4391 34.5836 40.7821ZM36.9677 39.8145C37.4899 39.8145 37.9148 40.2485 37.9148 40.7821C37.9148 41.3156 37.4899 41.7497 36.9677 41.7497C36.4455 41.7497 36.0206 41.3156 36.0206 40.7821C36.0206 40.2485 36.4455 39.8145 36.9677 39.8145Z" fill="#6B61A9"/>
<path d="M34.6113 23.087C34.2204 22.6875 33.5841 22.6875 33.1931 23.087L31.2754 25.0461C30.9948 25.3328 30.9948 25.7976 31.2754 26.0841C31.556 26.3708 32.0109 26.3708 32.2914 26.0841L33.1836 25.1727V30.0991C33.1836 33.1026 30.7918 35.5461 27.8518 35.5461H23.6915C23.2947 35.5461 22.973 35.8747 22.973 36.2801C22.973 36.6855 23.2947 37.0141 23.6915 37.0141H27.8518C31.5841 37.0141 34.6206 33.9121 34.6206 30.0991V25.1727L35.5128 26.0841C35.6531 26.2274 35.837 26.2992 36.0208 26.2992C36.2047 26.2992 36.3886 26.2275 36.5289 26.0841C36.8095 25.7975 36.8095 25.3327 36.5289 25.0461L34.6113 23.087Z" fill="#6B61A9"/>
<path d="M22.0335 25.7676C22.218 25.7676 22.4025 25.6954 22.543 25.5513C22.8228 25.2638 22.8216 24.799 22.5402 24.5132L19.5784 21.504L20.8402 21.5005C21.237 21.4994 21.5579 21.1699 21.5567 20.7644C21.5557 20.3597 21.2341 20.0325 20.8382 20.0325H20.8362L18.1242 20.0401C17.8563 20.0408 17.6048 20.1482 17.4158 20.3421C17.2269 20.5362 17.1234 20.7937 17.124 21.0674L17.1315 23.838C17.1326 24.2427 17.4541 24.57 17.85 24.57H17.852C18.2488 24.5689 18.5697 24.2394 18.5685 23.8339L18.5651 22.5449L21.5269 25.5542C21.667 25.6965 21.8502 25.7676 22.0335 25.7676V25.7676Z" fill="#6B61A9"/>
<path d="M23.8359 30.9588C23.9763 31.103 24.1608 31.1752 24.3453 31.1752C24.5286 31.1752 24.7119 31.104 24.852 30.9616L25.8352 29.9627L26.8184 30.9616C26.9586 31.104 27.1418 31.1752 27.3251 31.1752C27.5096 31.1752 27.6941 31.1029 27.8346 30.9588C28.1144 30.6713 28.1132 30.2065 27.8318 29.9208L26.8542 28.9275L27.8318 27.9342C28.1132 27.6483 28.1144 27.1836 27.8346 26.8962C27.5547 26.6087 27.0998 26.6075 26.8185 26.8934L25.8353 27.8923L24.8521 26.8934C24.5708 26.6076 24.1159 26.6089 23.8361 26.8962C23.5562 27.1836 23.5575 27.6484 23.8388 27.9342L24.8165 28.9275L23.8388 29.9208C23.5573 30.2065 23.556 30.6713 23.8359 30.9588V30.9588Z" fill="#6B61A9"/>
<path d="M18.6202 36.309C18.3403 36.0215 17.8854 36.0204 17.6041 36.3062L16.6209 37.3051L15.6377 36.3062C15.3564 36.0204 14.9015 36.0217 14.6217 36.309C14.3418 36.5965 14.3431 37.0612 14.6244 37.347L15.6021 38.3403L14.6244 39.3336C14.3431 39.6195 14.3418 40.0841 14.6217 40.3716C14.7621 40.5158 14.9466 40.588 15.1311 40.588C15.3144 40.588 15.4977 40.5168 15.6378 40.3744L16.621 39.3755L17.6042 40.3744C17.7444 40.5168 17.9276 40.588 18.1109 40.588C18.2954 40.588 18.4799 40.5157 18.6204 40.3716C18.9002 40.0841 18.899 39.6194 18.6176 39.3336L17.6399 38.3403L18.6176 37.347C18.8988 37.0612 18.9 36.5965 18.6202 36.309Z" fill="#6B61A9"/>
</g>
<defs>
<clipPath id="clip0_4_1407">
<rect width="48.9428" height="50" fill="white"/>
</clipPath>
</defs>
</svg>
