<svg width="19" height="19" viewBox="0 0 19 19" fill="none" xmlns="http://www.w3.org/2000/svg">
<path d="M1 5C1 3.59987 1 2.8998 1.27248 2.36502C1.51217 1.89462 1.89462 1.51217 2.36502 1.27248C2.8998 1 3.59987 1 5 1H14C15.4001 1 16.1002 1 16.635 1.27248C17.1054 1.51217 17.4878 1.89462 17.7275 2.36502C18 2.8998 18 3.59987 18 5V14C18 15.4001 18 16.1002 17.7275 16.635C17.4878 17.1054 17.1054 17.4878 16.635 17.7275C16.1002 18 15.4001 18 14 18H5C3.59987 18 2.8998 18 2.36502 17.7275C1.89462 17.4878 1.51217 17.1054 1.27248 16.635C1 16.1002 1 15.4001 1 14V5Z" stroke="#6B61A9"/>
<path d="M1 6H3.76393C4.73426 6 5.21942 6 5.62999 6.19724C5.75717 6.25834 5.87753 6.33272 5.98906 6.41915C6.34909 6.69817 6.56606 7.13211 7 8V8C7.43394 8.86789 7.65091 9.30183 8.01094 9.58085C8.12247 9.66728 8.24283 9.74166 8.37001 9.80276C8.78058 10 9.26574 10 10.2361 10H15C15.9319 10 16.3978 10 16.7654 9.84776C17.2554 9.64477 17.6448 9.25542 17.8478 8.76537C18 8.39782 18 7.93188 18 7V7" stroke="#6B61A9"/>
<path d="M4.5 13.5H12.5" stroke="#6B61A9" stroke-linecap="round"/>
</svg>
